<svg width="30" height="10" viewBox="0 0 30 10" fill="none" xmlns="http://www.w3.org/2000/svg">
<g clip-path="url(#clip0_65_2402)">
<path d="M5.20404 0.588379C4.00013 0.626957 2.86021 1.11851 2.03001 1.95707C1.19981 2.79564 0.745819 3.91406 0.765898 5.07123C0.785977 6.22841 1.27852 7.33166 2.13735 8.14317C2.99618 8.95468 4.15252 9.40946 5.3571 9.40946C6.56167 9.40946 7.71801 8.95468 8.57684 8.14317C9.43567 7.33166 9.92822 6.22841 9.9483 5.07123C9.96837 3.91406 9.51438 2.79564 8.68418 1.95707C7.85398 1.11851 6.71406 0.626957 5.51016 0.588379H5.20404ZM11.6326 0.588379C10.4287 0.626957 9.28878 1.11851 8.45858 1.95707C7.62838 2.79564 7.17439 3.91406 7.19447 5.07123C7.21455 6.22841 7.70709 7.33166 8.56592 8.14317C9.42476 8.95468 10.5811 9.40946 11.7857 9.40946C12.9902 9.40946 14.1466 8.95468 15.0054 8.14317C15.8642 7.33166 16.3568 6.22841 16.3769 5.07123C16.3969 3.91406 15.943 2.79564 15.1128 1.95707C14.2826 1.11851 13.1426 0.626957 11.9387 0.588379H11.6326ZM18.0612 0.588379C16.8573 0.626957 15.7174 1.11851 14.8872 1.95707C14.057 2.79564 13.603 3.91406 13.623 5.07123C13.6431 6.22841 14.1357 7.33166 14.9945 8.14317C15.8533 8.95468 17.0097 9.40946 18.2142 9.40946C19.4188 9.40946 20.5752 8.95468 21.434 8.14317C22.2928 7.33166 22.7854 6.22841 22.8054 5.07123C22.8255 3.91406 22.3715 2.79564 21.5413 1.95707C20.7111 1.11851 19.5712 0.626957 18.3673 0.588379H18.0612ZM24.4897 0.588379C23.2858 0.626957 22.1459 1.11851 21.3157 1.95707C20.4855 2.79564 20.0315 3.91406 20.0516 5.07123C20.0717 6.22841 20.5642 7.33166 21.4231 8.14317C22.2819 8.95468 23.4382 9.40946 24.6428 9.40946C25.8474 9.40946 27.0037 8.95468 27.8626 8.14317C28.7214 7.33166 29.2139 6.22841 29.234 5.07123C29.2541 3.91406 28.8001 2.79564 27.9699 1.95707C27.1397 1.11851 25.9998 0.626957 24.7959 0.588379H24.4897Z" stroke="#0F172A"/>
</g>
<defs>
<clipPath id="clip0_65_2402">
<rect width="30" height="10" fill="white"/>
</clipPath>
</defs>
</svg>
