<svg width="86" height="30" viewBox="0 0 86 30" fill="none" xmlns="http://www.w3.org/2000/svg">
<path fill-rule="evenodd" clip-rule="evenodd" d="M1.73279 2.15405H84.2715V27.8456H1.73279V2.15405Z" fill="#FFD601"/>
<path fill-rule="evenodd" clip-rule="evenodd" d="M74.466 7.22195C76.3061 7.22195 77.1214 9.10097 77.1143 10.0848C77.1143 10.9872 76.5292 13.0289 74.4515 13.0207L16.8428 13.0037L16.8649 22.7787H9.88367V7.22144L74.466 7.22195ZM66.3351 9.10869C66.7949 9.10869 67.2542 9.53186 67.2542 9.99518C67.2542 10.4672 66.7874 10.9872 66.3267 10.9872H16.8649L16.8724 9.10097L66.3351 9.10869ZM35.42 14.5733C36.8745 14.5733 37.8903 15.6636 37.8903 17.5334C37.8903 18.5743 36.9858 19.6394 36.325 19.8757L38.1946 22.7787H33.246L32.0146 20.2824H30.8645L30.8569 22.7787H26.6504L26.6358 14.5733H35.42ZM32.9417 16.4518C33.3869 16.4518 33.7729 16.8914 33.7729 17.3542C33.7729 17.9236 33.3869 18.266 32.9417 18.266H30.8569V16.4523L32.9417 16.4518ZM49.4787 14.5733L49.4642 16.4605L44.6273 16.4518V17.745L49.3082 17.7532V19.6399H44.6273V20.9244H49.776L49.7685 22.7792H40.2423V14.5733H49.4787ZM56.4308 14.5733V20.9239H60.6074L60.5998 22.7787H52.1425V14.5733H56.4308ZM66.1346 14.5733V20.9239H70.297V22.7787H61.8463V14.5733H66.1346ZM23.8461 14.5733V22.7787H19.6691V14.5733H23.8461ZM71.6242 14.5733H75.8017V22.7787H71.6242V14.5733Z" fill="#CC2229"/>
</svg>
