<svg width="24" height="24" viewBox="0 0 24 24" fill="none" xmlns="http://www.w3.org/2000/svg">
<path fill-rule="evenodd" clip-rule="evenodd" d="M9.53033 6.46967C9.82322 6.76256 9.82322 7.23744 9.53033 7.53033L5.81066 11.25L20 11.25C20.4142 11.25 20.75 11.5858 20.75 12C20.75 12.4142 20.4142 12.75 20 12.75L5.81066 12.75L9.53033 16.4697C9.82322 16.7626 9.82322 17.2374 9.53033 17.5303C9.23744 17.8232 8.76256 17.8232 8.46967 17.5303L3.46967 12.5303C3.32902 12.3897 3.25 12.1989 3.25 12C3.25 11.8011 3.32902 11.6103 3.46967 11.4697L8.46967 6.46967C8.76256 6.17678 9.23744 6.17678 9.53033 6.46967Z" fill="black"/>
</svg>
