<svg width="165" height="52" viewBox="0 0 165 52" fill="none" xmlns="http://www.w3.org/2000/svg">
<path d="M1.87833 7.10542C2.05876 3.66266 5.09651 1.07969 8.5235 1.45512L139.39 15.7916C141.285 15.9992 142.968 17.0949 143.925 18.7435L157.225 41.6526C159.618 45.7743 156.482 50.9062 151.722 50.6568L6.00436 43.02C2.69519 42.8466 0.153173 40.0234 0.326599 36.7142L1.87833 7.10542Z" fill="#FFD601"/>
<path d="M0.999939 11.3506C0.999939 7.90315 3.89835 5.16474 7.34029 5.3603L138.778 12.8281C140.681 12.9362 142.419 13.9423 143.461 15.5386L157.942 37.7202C160.547 41.7111 157.684 47.0001 152.918 47.0001H6.99994C3.68623 47.0001 0.999939 44.3138 0.999939 41.0001V11.3506Z" fill="#0F172A"/>
</svg>
