<svg width="21" height="21" viewBox="0 0 21 21" fill="none" xmlns="http://www.w3.org/2000/svg">
<path d="M15.75 18.3751C17.1997 18.3751 18.375 17.1999 18.375 15.7501C18.375 14.3004 17.1997 13.1251 15.75 13.1251C14.3003 13.1251 13.125 14.3004 13.125 15.7501C13.125 17.1999 14.3003 18.3751 15.75 18.3751Z" stroke="#0F172A" stroke-linecap="round" stroke-linejoin="round"/>
<path d="M5.25 7.87512C6.69975 7.87512 7.875 6.69987 7.875 5.25012C7.875 3.80037 6.69975 2.62512 5.25 2.62512C3.80025 2.62512 2.625 3.80037 2.625 5.25012C2.625 6.69987 3.80025 7.87512 5.25 7.87512Z" stroke="#0F172A" stroke-linecap="round" stroke-linejoin="round"/>
<mask id="path-3-inside-1_204_15075" fill="white">
<path d="M11.375 5.25012H14C14.4641 5.25012 14.9092 5.4345 15.2374 5.76269C15.5656 6.09087 15.75 6.53599 15.75 7.00012V13.1251"/>
</mask>
<path d="M11.375 4.05012C10.7123 4.05012 10.175 4.58738 10.175 5.25012C10.175 5.91286 10.7123 6.45012 11.375 6.45012V4.05012ZM14 5.25012V4.05012V5.25012ZM14.55 13.1251C14.55 13.7879 15.0873 14.3251 15.75 14.3251C16.4127 14.3251 16.95 13.7879 16.95 13.1251H14.55ZM11.375 6.45012H14V4.05012H11.375V6.45012ZM14 6.45012C14.1459 6.45012 14.2858 6.50807 14.3889 6.61121L16.086 4.91416C15.5327 4.36092 14.7824 4.05012 14 4.05012L14 6.45012ZM14.3889 6.61121C14.4921 6.71436 14.55 6.85425 14.55 7.00012H16.95C16.95 6.21773 16.6392 5.46739 16.086 4.91416L14.3889 6.61121ZM14.55 7.00012V13.1251H16.95V7.00012H14.55Z" fill="#0F172A" mask="url(#path-3-inside-1_204_15075)"/>
<mask id="path-5-inside-2_204_15075" fill="white">
<path d="M9.625 15.7501H7C6.53587 15.7501 6.09075 15.5657 5.76256 15.2376C5.43437 14.9094 5.25 14.4643 5.25 14.0001V7.87512"/>
</mask>
<path d="M9.625 16.9501C10.2877 16.9501 10.825 16.4129 10.825 15.7501C10.825 15.0874 10.2877 14.5501 9.625 14.5501V16.9501ZM5.25 14.0001H4.05H5.25ZM6.45 7.87512C6.45 7.21238 5.91274 6.67512 5.25 6.67512C4.58726 6.67512 4.05 7.21238 4.05 7.87512H6.45ZM9.625 14.5501H7V16.9501H9.625V14.5501ZM7 14.5501C6.85413 14.5501 6.71424 14.4922 6.61109 14.389L4.91403 16.0861C5.46727 16.6393 6.21761 16.9501 7 16.9501V14.5501ZM6.61109 14.389C6.50795 14.2859 6.45 14.146 6.45 14.0001H4.05C4.05 14.7825 4.3608 15.5329 4.91403 16.0861L6.61109 14.389ZM6.45 14.0001V7.87512H4.05V14.0001H6.45Z" fill="#0F172A" mask="url(#path-5-inside-2_204_15075)"/>
</svg>
