<svg width="25" height="24" viewBox="0 0 25 24" fill="none" xmlns="http://www.w3.org/2000/svg">
<path d="M18.5596 21C20.2164 21 21.5596 19.6569 21.5596 18C21.5596 16.3431 20.2164 15 18.5596 15C16.9027 15 15.5596 16.3431 15.5596 18C15.5596 19.6569 16.9027 21 18.5596 21Z" stroke="white" stroke-width="1.2" stroke-linecap="round" stroke-linejoin="round"/>
<path d="M6.55957 9C8.21642 9 9.55957 7.65685 9.55957 6C9.55957 4.34315 8.21642 3 6.55957 3C4.90272 3 3.55957 4.34315 3.55957 6C3.55957 7.65685 4.90272 9 6.55957 9Z" stroke="white" stroke-width="1.2" stroke-linecap="round" stroke-linejoin="round"/>
<path d="M13.5596 6H16.5596C17.09 6 17.5987 6.21071 17.9738 6.58579C18.3489 6.96086 18.5596 7.46957 18.5596 8V15" stroke="white" stroke-width="1.2" stroke-linecap="round" stroke-linejoin="round"/>
<path d="M11.5596 18H8.55957C8.02914 18 7.52043 17.7893 7.14536 17.4142C6.77028 17.0391 6.55957 16.5304 6.55957 16V9" stroke="white" stroke-width="1.2" stroke-linecap="round" stroke-linejoin="round"/>
</svg>
