<svg width="80" height="80" viewBox="0 0 80 80" fill="none" xmlns="http://www.w3.org/2000/svg">
<path d="M42.6534 52.6627H63.98C64.7797 52.6627 65.3128 52.1296 65.3128 51.3298V39.3336C65.3128 38.5338 64.7797 38.0007 63.98 38.0007H42.6534C41.8536 38.0007 41.3205 38.5338 41.3205 39.3336V51.3298C41.3203 52.1294 41.8536 52.6627 42.6534 52.6627ZM43.9862 40.6665H62.6471V49.9968H43.9862V40.6665Z" fill="#FFD601"/>
<path d="M6.66465 35.3347H17.328C18.1278 35.3347 18.6609 34.8016 18.6609 34.0018C18.6609 33.2021 18.1278 32.6689 17.328 32.6689H6.66465C5.8649 32.6689 5.33179 33.2021 5.33179 34.0018C5.33179 34.8016 5.8649 35.3347 6.66465 35.3347Z" fill="black"/>
<path d="M22.6596 35.3347H33.323C34.1228 35.3347 34.6559 34.8016 34.6559 34.0018C34.6559 33.2021 34.1228 32.6689 33.323 32.6689H22.6596C21.8599 32.6689 21.3268 33.2021 21.3268 34.0018C21.3268 34.8016 21.8599 35.3347 22.6596 35.3347Z" fill="black"/>
<path d="M6.66465 40.6665H23.9925C24.7923 40.6665 25.3254 40.1333 25.3254 39.3336C25.3254 38.5338 24.7923 38.0007 23.9925 38.0007H6.66465C5.8649 38.0007 5.33179 38.5338 5.33179 39.3336C5.33179 40.1333 5.8649 40.6665 6.66465 40.6665Z" fill="#FFD601"/>
<path d="M33.3229 38.0006H29.3241C28.5244 38.0006 27.9913 38.5337 27.9913 39.3335C27.9913 40.1332 28.5244 40.6663 29.3241 40.6663H33.3229C34.1226 40.6663 34.6558 40.1332 34.6558 39.3335C34.6558 38.5337 34.1226 38.0006 33.3229 38.0006Z" fill="black"/>
<path d="M78.7754 21.4725C77.8424 20.2729 76.6428 19.6064 75.1765 19.4731L71.9775 19.0854V15.341V12.6752C71.9775 9.74288 69.5783 7.34363 66.6459 7.34363H5.33161C2.39925 7.34347 0 9.74272 0 12.6752V15.3411V26.0045V55.3286C0 57.7362 1.61778 59.7832 3.81959 60.4392C3.75242 63.1356 5.79256 65.4764 8.53077 65.7254L70.1115 72.6565C70.2448 72.6565 70.5114 72.6565 70.6446 72.6565C73.3105 72.6565 75.7098 70.6571 75.9763 68.1246L79.975 25.338C80.1082 24.005 79.7084 22.5387 78.7754 21.4725ZM2.66589 16.674H69.3118V20.1396V24.6715H2.66589V16.674ZM5.33161 10.0094H66.6457C68.112 10.0094 69.3116 11.209 69.3116 12.6752V14.0081H2.66589V12.6752C2.66589 11.209 3.86551 10.0094 5.33161 10.0094ZM2.66589 55.3285V27.3372H69.3118V55.3285C69.3118 56.7947 68.1122 57.9944 66.6459 57.9944H5.46501H5.33177C3.86551 57.9944 2.66589 56.7947 2.66589 55.3285ZM77.3091 24.8047L73.3104 67.5914C73.1771 69.0576 71.8441 70.1238 70.378 69.9906L8.93049 63.0595C7.59763 62.9263 6.66448 61.8599 6.53124 60.6602H66.6457C69.5781 60.6602 71.9773 58.261 71.9773 55.3286V26.0044V21.6057L75.0431 21.8724C75.7096 21.8724 76.376 22.2722 76.7758 22.8054C77.1759 23.3385 77.4425 24.1382 77.3091 24.8047Z" fill="black"/>
</svg>
