<svg width="93" height="68" viewBox="0 0 93 68" fill="none" xmlns="http://www.w3.org/2000/svg">
<path d="M65.4674 40.2002L64.3627 38.6611L62.3871 40.0791L63.4918 41.6182L65.4674 40.2002Z" fill="black"/>
<path d="M7.36543 45.8619H4.38078V47.7565H7.36543V45.8619Z" fill="black"/>
<path d="M3.3297 29.3621H0.344864V31.2566H3.3297V29.3621Z" fill="black"/>
<path d="M89.177 18.1269C87.1267 10.5749 80.2105 5.14307 72.1758 5.14307C62.4618 5.14307 54.559 13.0463 54.559 22.7605C54.559 25.0582 54.9886 27.2721 55.8374 29.362H19.0071H17.7552H5.84696V31.2565H17.755V34.6932H10.9145V36.5877H17.7552V45.862H9.57275V47.7566H17.7552V51.0375H13.1924V52.9321H17.7552V66.9266H78.574V39.1781C81.7686 37.9359 84.5054 35.8081 86.519 32.9925L84.9779 31.8903C83.3265 34.1995 81.13 35.9889 78.574 37.1245V29.3618H57.9034C56.9415 27.2918 56.4533 25.0741 56.4533 22.7603C56.4533 14.0907 63.5065 7.03741 72.1756 7.03741C79.4069 7.03741 85.6209 11.9668 87.3921 18.7941L84.0625 16.8969L83.1247 18.5431L89.1601 21.982L92.655 15.8491L91.0088 14.9109L89.177 18.1269ZM74.6819 31.2565L66.173 37.3624L67.2775 38.9017L76.6797 32.1549V64.0382L56.9461 48.65L55.7811 50.1441L74.8733 65.032H21.457L40.548 50.1441L39.383 48.65L19.65 64.0387V32.1549L45.1604 50.4606C46.059 51.1055 47.1119 51.4278 48.1649 51.4278C49.2183 51.4278 50.2714 51.1055 51.17 50.4606L61.5873 42.985L60.4826 41.4459L50.0655 48.9213C48.9288 49.7369 47.4014 49.7373 46.2647 48.9213L21.6474 31.2565H74.6819Z" fill="black"/>
<path d="M56.2578 10.8491L54.752 9.69946C51.8182 13.5423 50.2675 18.1354 50.2675 22.9822H52.162C52.162 18.5545 53.5782 14.3589 56.2578 10.8491Z" fill="#FFD601"/>
<path d="M61.539 6.02554L60.5307 4.42163C59.2345 5.23647 58.0189 6.19169 56.9178 7.26021L58.2375 8.61972C59.2437 7.64309 60.3545 6.77009 61.539 6.02554Z" fill="#FFD601"/>
<path d="M72.176 2.96802C75.953 2.96802 79.6306 4.02517 82.8121 6.02484L83.8204 4.42093C80.3365 2.23104 76.3099 1.07349 72.176 1.07349C69.1836 1.07349 66.2827 1.66628 63.5544 2.8354L64.3005 4.57666C66.7918 3.50928 69.4417 2.96802 72.176 2.96802Z" fill="#FFD601"/>
<path d="M87.7472 7.57004C87.1419 6.95848 86.4936 6.37648 85.8209 5.84033L84.6402 7.32186C85.2551 7.81197 85.8474 8.34415 86.4008 8.90303L87.7472 7.57004Z" fill="#FFD601"/>
<path d="M71.3222 9.87939V20.0968C70.4909 20.3865 69.8329 21.0446 69.543 21.8759H62.2334V23.7705H69.543C69.9363 24.899 71.0084 25.7124 72.2694 25.7124C73.8626 25.7124 75.1586 24.4161 75.1586 22.8232C75.1586 21.5622 74.3453 20.4903 73.2167 20.0968V9.87939H71.3222ZM72.2694 23.8178C71.721 23.8178 71.2748 23.3717 71.2748 22.8232C71.2748 22.2746 71.721 21.8286 72.2694 21.8286C72.8181 21.8286 73.2641 22.2746 73.2641 22.8232C73.2641 23.3715 72.8179 23.8178 72.2694 23.8178Z" fill="#FFD601"/>
<path d="M85.7959 30.6218L87.4356 31.5705C87.882 30.7989 88.2723 29.9875 88.5955 29.1584L86.8305 28.4703C86.5422 29.2096 86.1942 29.9335 85.7959 30.6218Z" fill="#FFD601"/>
</svg>
