<svg width="23" height="22" viewBox="0 0 23 22" fill="none" xmlns="http://www.w3.org/2000/svg">
<g clip-path="url(#clip0_32_6588)">
<path d="M8.67479 5.50021C8.95092 5.50021 9.17477 5.27636 9.17477 5.00023C9.17477 4.72409 8.95092 4.50024 8.67479 4.50024C8.39866 4.50024 8.1748 4.72409 8.1748 5.00023C8.1748 5.27636 8.39866 5.50021 8.67479 5.50021Z" fill="#FFD601"/>
<path d="M6.67476 5.50021C6.95089 5.50021 7.17474 5.27636 7.17474 5.00023C7.17474 4.72409 6.95089 4.50024 6.67476 4.50024C6.39862 4.50024 6.17477 4.72409 6.17477 5.00023C6.17477 5.27636 6.39862 5.50021 6.67476 5.50021Z" fill="#FFD601"/>
<path d="M10.6748 5.50021C10.9509 5.50021 11.1747 5.27636 11.1747 5.00023C11.1747 4.72409 10.9509 4.50024 10.6748 4.50024C10.3986 4.50024 10.1748 4.72409 10.1748 5.00023C10.1748 5.27636 10.3986 5.50021 10.6748 5.50021Z" fill="#FFD601"/>
<path d="M9.4845 10.9128C9.28048 10.6035 8.92444 10.5128 8.67478 10.5128C8.41718 10.5128 8.0463 10.6093 7.84605 10.9431C7.83616 10.9595 7.81762 10.9891 7.79187 11.0301C7.65292 11.2517 7.3042 11.8077 6.97438 12.4457C6.77791 12.8258 6.5814 13.2472 6.43301 13.6613C6.28723 14.0682 6.1748 14.5033 6.1748 14.9003C6.1748 16.3024 7.27517 17.5003 8.67478 17.5003C10.0744 17.5003 11.1748 16.3024 11.1748 14.9003C11.1748 14.5061 11.0669 14.0728 10.9251 13.6656C10.7809 13.2515 10.5892 12.8298 10.3955 12.4487C10.0304 11.7308 9.63293 11.1091 9.4845 10.9128ZM8.67478 15.5003C8.44609 15.5003 8.17477 15.2716 8.17477 14.9003C8.17477 14.7364 8.26074 14.419 8.44684 13.9848C8.51474 13.8263 8.59184 13.6616 8.67477 13.4954C8.75771 13.6616 8.83481 13.8263 8.90271 13.9848C9.08882 14.419 9.1748 14.7364 9.1748 14.9003C9.1748 15.2716 8.90347 15.5003 8.67478 15.5003Z" fill="#FFD601" stroke="black"/>
<path d="M22.6309 6.04419L22.6308 6.04417L20.1308 3.54416C19.8722 3.28556 19.4773 3.28556 19.2187 3.54416C18.9601 3.80276 18.9601 4.1977 19.2187 4.45629L20.3308 5.5684C19.872 5.87147 19.5248 6.40943 19.5248 7.00024C19.5248 7.93309 20.2419 8.65024 21.1748 8.65024C21.3086 8.65024 21.4228 8.63016 21.5248 8.60343V17.5003C21.5248 18.2674 20.9419 18.8503 20.1748 18.8503C19.4076 18.8503 18.8248 18.2674 18.8248 17.5003V9.50025C18.8248 8.0174 17.6576 6.85024 16.1748 6.85024H15.3248V2.50025C15.3248 1.0174 14.1576 -0.149756 12.6748 -0.149756H4.67478C3.19193 -0.149756 2.02477 1.0174 2.02477 2.50025V18.8565C1.16614 18.9288 0.524774 19.6181 0.524774 20.5002C0.524774 21.4331 1.24192 22.1502 2.17477 22.1502H15.1748C16.1076 22.1502 16.8248 21.4331 16.8248 20.5002C16.8248 19.5674 16.1076 18.8503 15.1748 18.8503H4.67478C4.49068 18.8503 4.32563 18.9123 4.20621 19.0317C4.0868 19.1511 4.02479 19.3162 4.02479 19.5002C4.02479 19.6843 4.08682 19.8494 4.20623 19.9688C4.32565 20.0882 4.4907 20.1502 4.67478 20.1502H15.1748C15.2907 20.1502 15.3756 20.1882 15.4312 20.2438C15.4868 20.2994 15.5248 20.3843 15.5248 20.5002C15.5248 20.6161 15.4868 20.701 15.4312 20.7566C15.3756 20.8122 15.2907 20.8502 15.1748 20.8502H2.17477C2.05886 20.8502 1.97392 20.8122 1.91834 20.7566C1.86276 20.701 1.82479 20.6161 1.82479 20.5002C1.82479 20.3843 1.86277 20.2994 1.91836 20.2438C1.97395 20.1882 2.05888 20.1502 2.17477 20.1502H2.67475C2.85885 20.1502 3.02391 20.0882 3.14332 19.9688C3.26273 19.8494 3.32474 19.6843 3.32474 19.5002V2.50025C3.32474 1.73309 3.90757 1.15026 4.67474 1.15026H12.6747C13.4419 1.15026 14.0247 1.73309 14.0247 2.50025V17.5003C14.0247 17.6844 14.0868 17.8494 14.2062 17.9688C14.3256 18.0882 14.4907 18.1502 14.6747 18.1502C14.8588 18.1502 15.0239 18.0882 15.1433 17.9688C15.2627 17.8494 15.3247 17.6843 15.3247 17.5003V8.15025H16.1747C16.9419 8.15025 17.5247 8.73308 17.5247 9.50025V17.5003C17.5247 18.9831 18.6919 20.1503 20.1747 20.1503C21.6576 20.1503 22.8247 18.9831 22.8247 17.5003V6.5003C22.8247 6.50028 22.8247 6.50027 22.8247 6.50026C22.8248 6.40775 22.8092 6.32396 22.7743 6.24559C22.7398 6.16786 22.6897 6.10305 22.6309 6.04419ZM21.1748 7.35022C21.0589 7.35022 20.9739 7.31224 20.9184 7.25666C20.8628 7.20107 20.8248 7.11614 20.8248 7.00024C20.8248 6.88433 20.8628 6.79939 20.9184 6.74381C20.9739 6.68823 21.0589 6.65026 21.1748 6.65026C21.2907 6.65026 21.3756 6.68824 21.4312 6.74383C21.4868 6.79942 21.5248 6.88435 21.5248 7.00024C21.5248 7.11616 21.4868 7.20109 21.4312 7.25667C21.3756 7.31224 21.2907 7.35022 21.1748 7.35022Z" fill="black" stroke="black" stroke-width="0.3"/>
<path d="M12.6748 2.00024H4.67479C4.37478 2.00024 4.1748 2.20026 4.1748 2.50023V7.50024C4.1748 7.80025 4.37482 8.00023 4.67479 8.00023H12.6748C12.9748 8.00023 13.1748 7.80021 13.1748 7.50024V2.50027C13.1748 2.20026 12.9748 2.00024 12.6748 2.00024ZM12.1748 7.00026H5.17477V3.00026H12.1748V7.00026Z" fill="black"/>
<path d="M12.6748 2.00024H4.67479C4.37478 2.00024 4.1748 2.20026 4.1748 2.50023V7.50024C4.1748 7.80025 4.37482 8.00023 4.67479 8.00023H12.6748C12.9748 8.00023 13.1748 7.80021 13.1748 7.50024V2.50027C13.1748 2.20026 12.9748 2.00024 12.6748 2.00024ZM12.1748 7.00026H5.17477V3.00026H12.1748V7.00026Z" fill="black"/>
<path d="M5.42477 7.00024V3.00024H11.9248V7.00024H5.42477Z" fill="#FFD601" stroke="black"/>
</g>
<defs>
<clipPath id="clip0_32_6588">
<rect width="22" height="22" fill="white" transform="translate(0.674774 0.000244141)"/>
</clipPath>
</defs>
</svg>
