<svg width="75" height="76" viewBox="0 0 75 76" fill="none" xmlns="http://www.w3.org/2000/svg">
<g clip-path="url(#clip0_0_3449)">
<path d="M73.3559 34.4246C72.8438 33.7461 72.3141 33.0441 72.2297 32.4992C72.1383 31.9191 72.4313 31.0672 72.7148 30.2445C73.1273 29.0516 73.5926 27.6992 73.1742 26.4102C72.7488 25.0965 71.5629 24.268 70.5164 23.5367C69.8133 23.0457 69.0879 22.5383 68.8313 22.0367C68.5687 21.5234 68.584 20.6281 68.598 19.7633C68.6191 18.4953 68.6426 17.0598 67.8398 15.9559C67.0336 14.8473 65.6555 14.4266 64.4402 14.0562C63.6164 13.8055 62.7633 13.5441 62.3613 13.1422C61.9582 12.7391 61.698 11.8859 61.4473 11.0621C61.077 9.84687 60.6562 8.46875 59.5465 7.6625C58.4437 6.85977 57.007 6.88203 55.7402 6.9043C54.8754 6.9207 53.9789 6.93359 53.4668 6.67109C52.9652 6.41562 52.4578 5.68906 51.9668 4.98594C51.2367 3.93945 50.4082 2.75469 49.0945 2.32812C47.8043 1.90977 46.4496 2.375 45.2555 2.78516C44.4328 3.06875 43.5785 3.36055 43.0008 3.27148C42.4559 3.18594 41.7539 2.65625 41.0742 2.14531C40.0523 1.37422 38.8922 0.5 37.5 0.5C36.1078 0.5 34.9477 1.37422 33.9246 2.14531C33.2461 2.65742 32.5441 3.18594 31.9992 3.27148C31.4215 3.36406 30.5684 3.06875 29.7445 2.78516C28.5504 2.37383 27.198 1.90859 25.9102 2.32578C24.5965 2.75234 23.768 3.93711 23.0367 4.98359C22.5457 5.68555 22.0383 6.41211 21.5367 6.66758C21.0234 6.93008 20.127 6.91367 19.2633 6.90078C17.9953 6.87617 16.5598 6.85508 15.4559 7.65898C14.3473 8.46523 13.9266 9.84336 13.5562 11.0586C13.3055 11.8836 13.0441 12.7355 12.6422 13.1387C12.2391 13.5418 11.3859 13.802 10.5609 14.0539C9.3457 14.4242 7.96875 14.8449 7.16133 15.9535C6.35859 17.0562 6.38203 18.493 6.40313 19.7609C6.41719 20.627 6.43125 21.5211 6.16992 22.0355C5.91445 22.5359 5.18789 23.0434 4.48594 23.5344C3.43945 24.2656 2.25469 25.0941 1.82695 26.4078C1.40859 27.698 1.875 29.0504 2.28633 30.2445C2.56992 31.0684 2.86406 31.9191 2.77266 32.4992C2.68711 33.0441 2.15859 33.7461 1.64648 34.4246C0.874219 35.4477 0 36.6078 0 38C0 39.3922 0.874219 40.5523 1.64531 41.5754C2.15742 42.2539 2.68594 42.957 2.77148 43.502L5.08711 43.1375C4.91133 42.0137 4.20234 41.0738 3.5168 40.1645C2.94023 39.3992 2.34375 38.6082 2.34375 38C2.34375 37.3918 2.94023 36.6008 3.5168 35.8355C4.20234 34.9262 4.91016 33.9863 5.08711 32.8625C5.26875 31.707 4.87852 30.575 4.50117 29.4805C4.19531 28.5934 3.87891 27.6746 4.05586 27.132C4.23984 26.566 5.04727 26.0023 5.82773 25.4562C6.76523 24.8012 7.73555 24.1238 8.25703 23.102C8.78438 22.0684 8.76562 20.8766 8.7457 19.7234C8.73047 18.7789 8.71523 17.8039 9.05625 17.334C9.40195 16.8594 10.3383 16.5734 11.2453 16.2969C12.3445 15.9605 13.4824 15.6137 14.2992 14.7969C15.116 13.9801 15.4629 12.8434 15.798 11.7441C16.0746 10.8383 16.3594 9.90078 16.8352 9.55508C17.3051 9.21289 18.2812 9.22812 19.2246 9.24453C20.3777 9.26328 21.5684 9.2832 22.6031 8.75586C23.625 8.23438 24.3023 7.26523 24.9586 6.32656C25.5035 5.54609 26.0684 4.73984 26.6344 4.55586C27.1758 4.37773 28.0945 4.69648 28.9816 5.00117C30.0773 5.37852 31.2082 5.76758 32.3637 5.58711C33.4863 5.41133 34.4273 4.70234 35.3367 4.0168C36.1008 3.44023 36.8918 2.84375 37.5 2.84375C38.1082 2.84375 38.8992 3.44023 39.6645 4.0168C40.5738 4.70234 41.5137 5.41016 42.6375 5.58711C43.7906 5.76523 44.925 5.37852 46.0195 5.00117C46.9078 4.69531 47.8242 4.37773 48.3691 4.55586C48.934 4.73984 49.4988 5.54609 50.0449 6.32656C50.7 7.26406 51.3785 8.23438 52.3992 8.75586C53.4328 9.2832 54.6293 9.2668 55.7777 9.24453C56.7223 9.23047 57.6984 9.21289 58.1684 9.55508C58.643 9.90078 58.9277 10.8371 59.2055 11.7441C59.5406 12.8434 59.8875 13.9812 60.7043 14.798C61.5199 15.6148 62.6578 15.9617 63.757 16.2969C64.6617 16.5734 65.5992 16.8594 65.9449 17.334C66.2871 17.8039 66.2707 18.7789 66.2555 19.7234C66.2367 20.8766 66.218 22.0684 66.7453 23.102C67.2668 24.1238 68.2359 24.8012 69.1734 25.4562C69.9539 26.0023 70.7602 26.566 70.9453 27.1332C71.1211 27.6758 70.8059 28.5934 70.5 29.4805C70.1227 30.575 69.7336 31.707 69.9141 32.8625C70.091 33.9852 70.8 34.9262 71.4844 35.8344C72.0598 36.6008 72.6562 37.3918 72.6562 38C72.6562 38.6082 72.0598 39.3992 71.4832 40.1656C70.7988 41.0738 70.091 42.0137 69.9129 43.1375L72.2297 43.502C72.3141 42.957 72.8438 42.2551 73.3559 41.5754C74.1258 40.5523 75 39.3922 75 38C75 36.6078 74.1258 35.4477 73.3559 34.4246ZM63.7547 59.7043C62.6555 60.0395 61.5176 60.3863 60.702 61.2031C59.8852 62.0187 59.5383 63.1566 59.202 64.2559C58.9266 65.1617 58.6406 66.098 58.1648 66.4437C57.6961 66.7848 56.7141 66.7684 55.7766 66.7543C54.6234 66.7355 53.4328 66.7168 52.3969 67.2441C51.3762 67.7656 50.6988 68.7348 50.0437 69.6723C49.4977 70.4527 48.934 71.259 48.3668 71.4441C47.823 71.6223 46.9066 71.3059 46.0184 70.9988C44.9238 70.6227 43.7906 70.2395 42.6363 70.4129C41.5125 70.5898 40.5727 71.2988 39.6645 71.9832C38.8992 72.5598 38.1082 73.1562 37.5 73.1562C36.8918 73.1562 36.1008 72.5598 35.3344 71.9832C34.4262 71.2988 33.4852 70.591 32.3625 70.4129C31.2105 70.2395 30.075 70.6227 28.9805 70.9988C28.0934 71.3047 27.177 71.6223 26.632 71.4441C26.066 71.2602 25.5012 70.4527 24.9562 69.6723C24.3 68.7336 23.6227 67.7645 22.602 67.243C21.5684 66.7156 20.3754 66.7344 19.2246 66.7543C18.2801 66.766 17.3039 66.7859 16.834 66.4426C16.3594 66.0969 16.0734 65.1605 15.7969 64.2547C15.4605 63.1555 15.1137 62.0176 14.2969 61.202C13.4801 60.3852 12.3434 60.0383 11.243 59.702C10.3371 59.4266 9.39961 59.1406 9.05508 58.6648L7.16016 60.0453C7.96641 61.1527 9.34453 61.5734 10.5586 61.9437C11.3836 62.1957 12.2367 62.4559 12.6398 62.859C13.043 63.2621 13.3031 64.1141 13.5551 64.9391C13.9254 66.1543 14.3461 67.5312 15.4547 68.3375C16.5574 69.1426 17.9941 69.1156 19.2633 69.0957C20.127 69.0863 21.0234 69.0676 21.5367 69.3289C22.0371 69.5844 22.5445 70.3109 23.0355 71.0141C23.7668 72.0605 24.5953 73.2453 25.909 73.673C27.1969 74.0879 28.5504 73.6262 29.7445 73.2137C30.5684 72.9313 31.4215 72.6289 31.9992 72.7285C32.5441 72.8129 33.2461 73.3426 33.9246 73.8547C34.9477 74.6258 36.1078 75.5 37.5 75.5C38.8922 75.5 40.0523 74.6258 41.0754 73.8559C41.7539 73.3438 42.457 72.8141 43.002 72.7297C43.5738 72.6289 44.4328 72.9313 45.2566 73.2148C46.452 73.6273 47.8055 74.0938 49.091 73.6742C50.4047 73.2488 51.2332 72.0617 51.9645 71.0152C52.4555 70.3133 52.9641 69.5867 53.4633 69.3313C53.9766 69.0676 54.8695 69.0816 55.7367 69.098C56.9965 69.118 58.4391 69.1426 59.5441 68.3398C60.6516 67.5336 61.0723 66.1566 61.4426 64.9414C61.6945 64.1176 61.9547 63.2633 62.3578 62.8613C62.7609 62.4582 63.6129 62.198 64.4367 61.9473C65.652 61.577 67.0301 61.1551 67.8363 60.0465L65.9414 58.6684C65.598 59.1418 64.6605 59.4266 63.7547 59.7043Z" fill="black"/>
<path d="M9.375 54.4062V52.0625C9.375 51.4145 8.85 50.8906 8.20312 50.8906H5.85938V53.2344H7.03125V54.4062C7.03125 55.0531 6.50508 55.5781 5.85938 55.5781C5.21367 55.5781 4.6875 55.0531 4.6875 54.4062V47.375C4.6875 46.7281 5.21367 46.2031 5.85938 46.2031C6.50508 46.2031 7.03125 46.7281 7.03125 47.375V48.5469H9.375V47.375C9.375 45.4367 7.79766 43.8594 5.85938 43.8594C3.92109 43.8594 2.34375 45.4367 2.34375 47.375V54.4062C2.34375 56.3445 3.92109 57.9219 5.85938 57.9219C7.79766 57.9219 9.375 56.3445 9.375 54.4062ZM10.5469 43.8594V54.4062C10.5469 56.3445 12.1242 57.9219 14.0625 57.9219C16.0008 57.9219 17.5781 56.3445 17.5781 54.4062V43.8594H15.2344V54.4062C15.2344 55.0531 14.7082 55.5781 14.0625 55.5781C13.4168 55.5781 12.8906 55.0531 12.8906 54.4062V43.8594H10.5469ZM18.75 47.375V57.9219H21.0938V55.5781H23.4375V57.9219H25.7812V47.375C25.7812 45.4367 24.2039 43.8594 22.2656 43.8594C20.3273 43.8594 18.75 45.4367 18.75 47.375ZM23.4375 47.375V53.2344H21.0938V47.375C21.0938 46.7281 21.6199 46.2031 22.2656 46.2031C22.9113 46.2031 23.4375 46.7281 23.4375 47.375ZM35.1562 47.375V57.9219H37.5V55.5781H39.8438V57.9219H42.1875V47.375C42.1875 45.4367 40.6102 43.8594 38.6719 43.8594C36.7336 43.8594 35.1562 45.4367 35.1562 47.375ZM38.6719 46.2031C39.3187 46.2031 39.8438 46.7281 39.8438 47.375V53.2344H37.5V47.375C37.5 46.7281 38.0262 46.2031 38.6719 46.2031ZM26.9531 45.0312V50.8859C26.9531 50.8895 26.9531 50.8918 26.9531 50.8941V57.9219H29.2969V54.2316L31.8973 57.4824C32.1199 57.7602 32.4562 57.9219 32.8125 57.9219H33.9844V55.5781H33.375L30.5227 52.0121C32.482 51.7039 33.9844 50.0047 33.9844 47.9609C33.9844 45.6992 32.1445 43.8594 29.8828 43.8594H28.125C27.4781 43.8594 26.9531 44.3832 26.9531 45.0312ZM29.2969 46.2031H29.8828C30.852 46.2031 31.6406 46.9918 31.6406 47.9609C31.6406 48.9301 30.852 49.7188 29.8828 49.7188H29.2969V46.2031ZM48.0469 50.6656L45.6199 44.5965C45.4102 44.0727 44.8523 43.7809 44.3098 43.8805C43.7578 43.9859 43.3594 44.4699 43.3594 45.0312V57.9219H45.7031V51.1156L48.1301 57.1848C48.3117 57.6371 48.7477 57.9219 49.2176 57.9219C49.2914 57.9219 49.3664 57.9148 49.4402 57.9008C49.9922 57.7953 50.3906 57.3113 50.3906 56.75V43.8594H48.0469V50.6656ZM56.25 46.2031H58.5938V43.8594H51.5625V46.2031H53.9062V57.9219H56.25V46.2031ZM65.625 46.2031V43.8594H60.9375C60.2895 43.8594 59.7656 44.3832 59.7656 45.0312V56.75C59.7656 57.398 60.2895 57.9219 60.9375 57.9219H65.625V55.5781H62.1094V52.0625H65.625V49.7188H62.1094V46.2031H65.625ZM66.7969 45.0312V56.75C66.7969 57.398 67.3207 57.9219 67.9688 57.9219H72.6562V55.5781H69.1406V52.0625H72.6562V49.7188H69.1406V46.2031H72.6562V43.8594H67.9688C67.3207 43.8594 66.7969 44.3832 66.7969 45.0312Z" fill="#FFD601"/>
<path d="M66.7969 38C66.7969 21.8457 53.6543 8.70312 37.5 8.70312C21.3457 8.70312 8.20312 21.8457 8.20312 38C8.20312 39.1801 8.28281 40.4117 8.43867 41.6609L10.7637 41.3703C10.6195 40.2172 10.5469 39.0828 10.5469 38C10.5469 23.1383 22.6383 11.0469 37.5 11.0469C52.3629 11.0469 64.4531 23.1383 64.4531 38C64.4531 39.0828 64.3805 40.2172 64.2352 41.3703L66.5602 41.6609C66.7184 40.4117 66.7969 39.1801 66.7969 38ZM55.391 61.1926L53.9578 59.3387C49.2012 63.0113 43.5117 64.9531 37.5 64.9531C31.4895 64.9531 25.7988 63.0113 21.0434 59.3387L19.6102 61.1926C24.7805 65.1863 30.9656 67.2969 37.5 67.2969C44.0344 67.2969 50.2207 65.1863 55.391 61.1926Z" fill="black"/>
<path d="M25.7812 25.1094H23.4375V27.4531H24.6094V39.1719H26.9531V26.2812C26.9531 25.6344 26.4281 25.1094 25.7812 25.1094ZM32.2266 25.1094C29.9648 25.1094 28.125 26.9492 28.125 29.2109V35.0703C28.125 37.332 29.9648 39.1719 32.2266 39.1719C34.4883 39.1719 36.3281 37.332 36.3281 35.0703V29.2109C36.3281 26.9492 34.4883 25.1094 32.2266 25.1094ZM33.9844 35.0703C33.9844 36.0395 33.1957 36.8281 32.2266 36.8281C31.2574 36.8281 30.4688 36.0395 30.4688 35.0703V29.2109C30.4688 28.2418 31.2574 27.4531 32.2266 27.4531C33.1957 27.4531 33.9844 28.2418 33.9844 29.2109V35.0703ZM41.6016 25.1094C39.3398 25.1094 37.5 26.9492 37.5 29.2109V35.0703C37.5 37.332 39.3398 39.1719 41.6016 39.1719C43.8633 39.1719 45.7031 37.332 45.7031 35.0703V29.2109C45.7031 26.9492 43.8633 25.1094 41.6016 25.1094ZM43.3594 35.0703C43.3594 36.0395 42.5707 36.8281 41.6016 36.8281C40.6324 36.8281 39.8438 36.0395 39.8438 35.0703V29.2109C39.8438 28.2418 40.6324 27.4531 41.6016 27.4531C42.5707 27.4531 43.3594 28.2418 43.3594 29.2109V35.0703Z" fill="black"/>
<path d="M49.3406 37.4762L54.0281 28.1012L56.1246 29.1489L51.4371 38.5238L49.3406 37.4762Z" fill="black"/>
<path d="M50.3906 29.7969H48.0469V32.1406H50.3906V29.7969Z" fill="black"/>
<path d="M57.4219 34.4844H55.0781V36.8281H57.4219V34.4844Z" fill="black"/>
</g>
<defs>
<clipPath id="clip0_0_3449">
<rect width="75" height="75" fill="white" transform="translate(0 0.5)"/>
</clipPath>
</defs>
</svg>
