<svg width="16" height="16" viewBox="0 0 16 16" fill="none" xmlns="http://www.w3.org/2000/svg">
<path d="M2.85742 11.4286V8.00004C2.85742 6.63606 3.39926 5.32796 4.36373 4.36349C5.3282 3.39901 6.63631 2.85718 8.00028 2.85718C9.36425 2.85718 10.6724 3.39901 11.6368 4.36349C12.6013 5.32796 13.1431 6.63606 13.1431 8.00004V11.4286M13.1431 12C13.1431 12.3031 13.0227 12.5938 12.8084 12.8082C12.5941 13.0225 12.3034 13.1429 12.0003 13.1429H11.4289C11.1257 13.1429 10.8351 13.0225 10.6207 12.8082C10.4064 12.5938 10.286 12.3031 10.286 12V10.2857C10.286 9.98264 10.4064 9.69195 10.6207 9.47763C10.8351 9.2633 11.1257 9.14289 11.4289 9.14289H13.1431V12ZM2.85742 12C2.85742 12.3031 2.97783 12.5938 3.19216 12.8082C3.40648 13.0225 3.69717 13.1429 4.00028 13.1429H4.57171C4.87481 13.1429 5.1655 13.0225 5.37983 12.8082C5.59416 12.5938 5.71456 12.3031 5.71456 12V10.2857C5.71456 9.98264 5.59416 9.69195 5.37983 9.47763C5.1655 9.2633 4.87481 9.14289 4.57171 9.14289H2.85742V12Z" stroke="white" stroke-linecap="round" stroke-linejoin="round"/>
</svg>
