<svg width="20" height="20" viewBox="0 0 20 20" fill="none" xmlns="http://www.w3.org/2000/svg">
<path d="M7.5 2.5H3.33333C2.8731 2.5 2.5 2.8731 2.5 3.33333V7.5C2.5 7.96024 2.8731 8.33333 3.33333 8.33333H7.5C7.96024 8.33333 8.33333 7.96024 8.33333 7.5V3.33333C8.33333 2.8731 7.96024 2.5 7.5 2.5Z" stroke="#0F172A" stroke-width="1.5" stroke-linecap="round" stroke-linejoin="round"/>
<path d="M7.5 11.6667H3.33333C2.8731 11.6667 2.5 12.0398 2.5 12.5001V16.6667C2.5 17.127 2.8731 17.5001 3.33333 17.5001H7.5C7.96024 17.5001 8.33333 17.127 8.33333 16.6667V12.5001C8.33333 12.0398 7.96024 11.6667 7.5 11.6667Z" stroke="#0F172A" stroke-width="1.5" stroke-linecap="round" stroke-linejoin="round"/>
<path d="M11.6667 3.33325H17.5001" stroke="#0F172A" stroke-width="1.5" stroke-linecap="round" stroke-linejoin="round"/>
<path d="M11.6667 7.5H17.5001" stroke="#0F172A" stroke-width="1.5" stroke-linecap="round" stroke-linejoin="round"/>
<path d="M11.6667 12.5H17.5001" stroke="#0F172A" stroke-width="1.5" stroke-linecap="round" stroke-linejoin="round"/>
<path d="M11.6667 16.6667H17.5001" stroke="#0F172A" stroke-width="1.5" stroke-linecap="round" stroke-linejoin="round"/>
</svg>
