<svg width="22" height="23" viewBox="0 0 22 23" fill="none" xmlns="http://www.w3.org/2000/svg">
<path d="M9.16666 13.5882C9.46538 13.893 9.82193 14.1352 10.2154 14.3006C10.6089 14.466 11.0315 14.5511 11.4583 14.5511C11.8852 14.5511 12.3077 14.466 12.7012 14.3006C13.0947 14.1352 13.4513 13.893 13.75 13.5882L17.4167 9.92149C18.0244 9.3137 18.3659 8.48936 18.3659 7.62982C18.3659 6.77028 18.0244 5.94594 17.4167 5.33816C16.8089 4.73037 15.9845 4.38892 15.125 4.38892C14.2654 4.38892 13.4411 4.73037 12.8333 5.33816L12.375 5.79649" stroke="#94A3B8" stroke-width="1.5" stroke-linecap="round" stroke-linejoin="round"/>
<path d="M12.8333 9.92146C12.5346 9.61658 12.1781 9.37437 11.7846 9.20902C11.391 9.04367 10.9685 8.9585 10.5417 8.9585C10.1148 8.9585 9.69229 9.04367 9.29878 9.20902C8.90528 9.37437 8.54872 9.61658 8.25 9.92146L4.58333 13.5881C3.97555 14.1959 3.63409 15.0203 3.63409 15.8798C3.63409 16.7393 3.97555 17.5637 4.58333 18.1715C5.19112 18.7793 6.01546 19.1207 6.875 19.1207C7.73454 19.1207 8.55888 18.7793 9.16667 18.1715L9.625 17.7131" stroke="#94A3B8" stroke-width="1.5" stroke-linecap="round" stroke-linejoin="round"/>
</svg>
