<svg width="24" height="25" viewBox="0 0 24 25" fill="none" xmlns="http://www.w3.org/2000/svg">
<path d="M14 8.75488V6.75488C14 6.22445 13.7893 5.71574 13.4142 5.34067C13.0391 4.9656 12.5304 4.75488 12 4.75488H5C4.46957 4.75488 3.96086 4.9656 3.58579 5.34067C3.21071 5.71574 3 6.22445 3 6.75488V18.7549C3 19.2853 3.21071 19.794 3.58579 20.1691C3.96086 20.5442 4.46957 20.7549 5 20.7549H12C12.5304 20.7549 13.0391 20.5442 13.4142 20.1691C13.7893 19.794 14 19.2853 14 18.7549V16.7549" stroke="#FF4747" stroke-width="1.5" stroke-linecap="round" stroke-linejoin="round"/>
<path d="M7 12.7549H21L18 9.75488M18 15.7549L21 12.7549" stroke="#FF4747" stroke-width="1.5" stroke-linecap="round" stroke-linejoin="round"/>
</svg>
