<svg width="25" height="24" viewBox="0 0 25 24" fill="none" xmlns="http://www.w3.org/2000/svg">
<path fill-rule="evenodd" clip-rule="evenodd" d="M5.55957 14V14C4.45457 14 3.55957 13.105 3.55957 12V12C3.55957 10.895 4.45457 10 5.55957 10V10C6.66457 10 7.55957 10.895 7.55957 12V12C7.55957 13.105 6.66457 14 5.55957 14Z" stroke="white" stroke-width="1.5" stroke-linecap="round" stroke-linejoin="round"/>
<path fill-rule="evenodd" clip-rule="evenodd" d="M12.5596 14V14C11.4546 14 10.5596 13.105 10.5596 12V12C10.5596 10.895 11.4546 10 12.5596 10V10C13.6646 10 14.5596 10.895 14.5596 12V12C14.5596 13.105 13.6646 14 12.5596 14Z" stroke="white" stroke-width="1.5" stroke-linecap="round" stroke-linejoin="round"/>
<path fill-rule="evenodd" clip-rule="evenodd" d="M19.5596 14V14C18.4546 14 17.5596 13.105 17.5596 12V12C17.5596 10.895 18.4546 10 19.5596 10V10C20.6646 10 21.5596 10.895 21.5596 12V12C21.5596 13.105 20.6646 14 19.5596 14Z" stroke="white" stroke-width="1.5" stroke-linecap="round" stroke-linejoin="round"/>
<path fill-rule="evenodd" clip-rule="evenodd" d="M5.55957 21V21C4.45457 21 3.55957 20.105 3.55957 19V19C3.55957 17.895 4.45457 17 5.55957 17V17C6.66457 17 7.55957 17.895 7.55957 19V19C7.55957 20.105 6.66457 21 5.55957 21Z" stroke="white" stroke-width="1.5" stroke-linecap="round" stroke-linejoin="round"/>
<path fill-rule="evenodd" clip-rule="evenodd" d="M12.5596 21V21C11.4546 21 10.5596 20.105 10.5596 19V19C10.5596 17.895 11.4546 17 12.5596 17V17C13.6646 17 14.5596 17.895 14.5596 19V19C14.5596 20.105 13.6646 21 12.5596 21Z" stroke="white" stroke-width="1.5" stroke-linecap="round" stroke-linejoin="round"/>
<path fill-rule="evenodd" clip-rule="evenodd" d="M19.5596 21V21C18.4546 21 17.5596 20.105 17.5596 19V19C17.5596 17.895 18.4546 17 19.5596 17V17C20.6646 17 21.5596 17.895 21.5596 19V19C21.5596 20.105 20.6646 21 19.5596 21Z" stroke="white" stroke-width="1.5" stroke-linecap="round" stroke-linejoin="round"/>
<path fill-rule="evenodd" clip-rule="evenodd" d="M5.55957 7V7C4.45457 7 3.55957 6.105 3.55957 5V5C3.55957 3.895 4.45457 3 5.55957 3V3C6.66457 3 7.55957 3.895 7.55957 5V5C7.55957 6.105 6.66457 7 5.55957 7Z" stroke="white" stroke-width="1.5" stroke-linecap="round" stroke-linejoin="round"/>
<path fill-rule="evenodd" clip-rule="evenodd" d="M12.5596 7V7C11.4546 7 10.5596 6.105 10.5596 5V5C10.5596 3.895 11.4546 3 12.5596 3V3C13.6646 3 14.5596 3.895 14.5596 5V5C14.5596 6.105 13.6646 7 12.5596 7Z" stroke="white" stroke-width="1.5" stroke-linecap="round" stroke-linejoin="round"/>
<path fill-rule="evenodd" clip-rule="evenodd" d="M19.5596 7V7C18.4546 7 17.5596 6.105 17.5596 5V5C17.5596 3.895 18.4546 3 19.5596 3V3C20.6646 3 21.5596 3.895 21.5596 5V5C21.5596 6.105 20.6646 7 19.5596 7Z" stroke="white" stroke-width="1.5" stroke-linecap="round" stroke-linejoin="round"/>
</svg>
