<svg width="132" height="50" viewBox="0 0 132 50" fill="none" xmlns="http://www.w3.org/2000/svg">
<path d="M2.84915 7.1204C3.0315 3.64094 6.12928 1.04796 9.58651 1.48092L109.838 14.0358C111.917 14.2963 113.71 15.6229 114.567 17.5354L124.798 40.3613C126.633 44.4556 123.489 49.0419 119.008 48.807L6.98037 42.9359C3.67121 42.7625 1.12919 39.9393 1.30261 36.6301L2.84915 7.1204Z" fill="#0F172A"/>
<path d="M1 10.4499C1 6.96568 3.95783 4.21413 7.43298 4.46556L108.204 11.7565C110.294 11.9078 112.154 13.1388 113.11 15.0038L124.521 37.263C126.568 41.2556 123.668 46.0001 119.182 46.0001H7C3.68629 46.0001 1 43.3138 1 40.0001V10.4499Z" fill="#FFD601"/>
</svg>
