<svg width="381" height="381" viewBox="0 0 381 381" fill="none" xmlns="http://www.w3.org/2000/svg">
<path d="M161.662 126.769L140.28 163.13L132.593 158.61L149.684 129.546L149.471 129.42L138.074 129.744L142.084 122.926L154.436 122.52L161.662 126.769ZM162.709 177.395C159.662 175.587 157.477 173.29 156.152 170.504C154.84 167.725 154.423 164.573 154.903 161.048C155.395 157.531 156.816 153.787 159.166 149.817C161.498 145.851 164.071 142.817 166.885 140.712C169.712 138.615 172.648 137.482 175.694 137.314C178.758 137.141 181.811 137.949 184.853 139.738C187.895 141.526 190.08 143.799 191.406 146.554C192.745 149.316 193.184 152.442 192.725 155.931C192.273 159.409 190.876 163.127 188.532 167.085C186.186 171.074 183.59 174.135 180.743 176.267C177.908 178.407 174.957 179.579 171.89 179.783C168.823 179.986 165.763 179.19 162.709 177.395ZM166.457 171.021C168.541 172.246 170.82 172.176 173.294 170.812C175.769 169.448 178.233 166.667 180.685 162.47C182.306 159.712 183.373 157.249 183.883 155.08C184.406 152.919 184.424 151.073 183.937 149.545C183.462 148.023 182.532 146.855 181.147 146.04C179.076 144.822 176.81 144.884 174.349 146.224C171.888 147.565 169.437 150.297 166.996 154.421C165.353 157.214 164.26 159.709 163.717 161.907C163.192 164.099 163.17 165.966 163.65 167.506C164.137 169.035 165.073 170.207 166.457 171.021ZM197.131 197.636C194.084 195.828 191.898 193.532 190.574 190.746C189.261 187.967 188.844 184.815 189.324 181.29C189.816 177.772 191.237 174.028 193.588 170.058C195.919 166.093 198.492 163.058 201.307 160.954C204.133 158.856 207.069 157.724 210.115 157.555C213.179 157.382 216.233 158.19 219.275 159.979C222.317 161.768 224.501 164.04 225.827 166.795C227.166 169.558 227.606 172.683 227.147 176.173C226.695 179.65 225.297 183.368 222.953 187.326C220.608 191.315 218.011 194.376 215.164 196.509C212.329 198.649 209.378 199.82 206.311 200.024C203.245 200.228 200.184 199.432 197.131 197.636ZM200.879 191.262C202.962 192.487 205.241 192.418 207.716 191.053C210.19 189.689 212.654 186.909 215.106 182.712C216.728 179.954 217.794 177.491 218.305 175.322C218.827 173.16 218.845 171.315 218.358 169.786C217.883 168.264 216.953 167.096 215.568 166.282C213.497 165.064 211.231 165.125 208.77 166.466C206.309 167.806 203.858 170.538 201.417 174.662C199.775 177.455 198.682 179.951 198.138 182.148C197.614 184.34 197.591 186.207 198.071 187.748C198.558 189.276 199.494 190.448 200.879 191.262ZM241.677 213.581L242.804 211.663C243.66 210.207 244.755 209.051 246.087 208.194C247.438 207.332 248.921 206.882 250.536 206.844C252.17 206.801 253.846 207.284 255.562 208.294C257.302 209.317 258.548 210.543 259.3 211.973C260.064 213.41 260.386 214.922 260.265 216.507C260.164 218.089 259.682 219.613 258.819 221.081L257.691 222.998C256.835 224.454 255.737 225.616 254.398 226.485C253.065 227.343 251.586 227.787 249.959 227.817C248.325 227.86 246.65 227.377 244.933 226.368C243.194 225.345 241.951 224.112 241.206 222.67C240.454 221.24 240.128 219.735 240.23 218.154C240.338 216.561 240.821 215.037 241.677 213.581ZM247.971 214.701L246.843 216.619C246.349 217.459 246.084 218.371 246.048 219.353C246.024 220.342 246.55 221.154 247.627 221.787C248.704 222.42 249.654 222.485 250.476 221.981C251.31 221.484 251.981 220.803 252.489 219.939L253.617 218.022C254.125 217.158 254.409 216.241 254.468 215.273C254.528 214.304 254.002 213.493 252.889 212.839C251.824 212.212 250.865 212.15 250.012 212.652C249.159 213.154 248.479 213.837 247.971 214.701ZM235.253 181.8L236.381 179.882C237.244 178.415 238.347 177.256 239.691 176.405C241.043 175.543 242.526 175.093 244.141 175.056C245.768 175.025 247.428 175.507 249.12 176.502C250.872 177.532 252.124 178.762 252.876 180.192C253.628 181.622 253.95 183.134 253.842 184.726C253.74 186.308 253.258 187.832 252.395 189.3L251.267 191.217C250.404 192.685 249.301 193.844 247.956 194.694C246.624 195.551 245.144 195.995 243.517 196.026C241.909 196.052 240.241 195.557 238.513 194.541C236.785 193.525 235.539 192.298 234.775 190.861C234.03 189.419 233.704 187.914 233.799 186.345C233.912 184.771 234.397 183.256 235.253 181.8ZM241.583 182.941L240.455 184.859C239.947 185.723 239.678 186.64 239.649 187.611C239.632 188.588 240.144 189.383 241.186 189.996C242.275 190.636 243.23 190.704 244.052 190.2C244.886 189.703 245.557 189.022 246.065 188.158L247.193 186.241C247.701 185.377 247.985 184.46 248.045 183.492C248.104 182.523 247.572 181.709 246.448 181.047C245.394 180.428 244.444 180.379 243.596 180.9C242.748 181.42 242.077 182.101 241.583 182.941ZM221.351 210.804L267.731 189.143L272.383 191.878L226.003 213.539L221.351 210.804Z" fill="white"/>
<path d="M123.78 185.909C122.895 187.413 121.858 188.525 120.667 189.245C119.481 189.968 118.235 190.319 116.929 190.3C115.63 190.28 114.372 189.912 113.155 189.196C111.93 188.475 110.993 187.55 110.347 186.421C109.7 185.291 109.404 184.032 109.458 182.645C109.513 181.257 109.981 179.813 110.863 178.314C111.748 176.81 112.783 175.697 113.969 174.974C115.155 174.252 116.398 173.901 117.697 173.922C118.998 173.938 120.262 174.306 121.488 175.027C122.704 175.743 123.636 176.665 124.283 177.795C124.937 178.922 125.237 180.18 125.182 181.568C125.132 182.958 124.664 184.405 123.78 185.909ZM120.823 184.171C121.396 183.197 121.733 182.289 121.835 181.449C121.941 180.611 121.833 179.865 121.511 179.21C121.189 178.555 120.676 178.021 119.971 177.606C119.266 177.192 118.549 177.003 117.821 177.04C117.092 177.077 116.385 177.344 115.7 177.841C115.019 178.341 114.392 179.078 113.82 180.052C113.247 181.027 112.907 181.933 112.801 182.771C112.7 183.611 112.81 184.359 113.132 185.013C113.454 185.668 113.967 186.202 114.672 186.617C115.377 187.031 116.094 187.22 116.822 187.183C117.551 187.147 118.255 186.878 118.936 186.378C119.621 185.881 120.25 185.145 120.823 184.171ZM127.764 197.533L135.874 183.741L141.315 186.94C142.357 187.553 143.136 188.262 143.653 189.068C144.178 189.871 144.434 190.726 144.421 191.631C144.416 192.534 144.145 193.441 143.609 194.353C143.07 195.268 142.41 195.94 141.626 196.368C140.846 196.791 139.978 196.957 139.022 196.867C138.071 196.778 137.065 196.423 136.006 195.8L132.363 193.657L133.741 191.314L136.913 193.179C137.469 193.506 137.977 193.702 138.435 193.766C138.892 193.83 139.301 193.762 139.66 193.562C140.024 193.365 140.339 193.04 140.605 192.586C140.875 192.128 141.01 191.688 141.011 191.266C141.016 190.846 140.88 190.445 140.602 190.065C140.331 189.682 139.916 189.326 139.354 188.996L137.388 187.839L130.68 199.247L127.764 197.533ZM138.903 195.636L138.64 203.928L135.421 202.035L135.758 193.787L138.903 195.636ZM157.114 196.231L149.004 210.023L146.088 208.308L154.198 194.516L157.114 196.231ZM171.916 210.935C172.014 210.552 172.052 210.184 172.029 209.832C172.009 209.476 171.927 209.138 171.783 208.818C171.646 208.495 171.448 208.195 171.19 207.916C170.935 207.639 170.62 207.39 170.242 207.168C169.538 206.754 168.815 206.565 168.075 206.601C167.339 206.639 166.626 206.906 165.937 207.401C165.25 207.891 164.624 208.616 164.059 209.577C163.494 210.538 163.159 211.441 163.055 212.286C162.951 213.131 163.061 213.888 163.387 214.557C163.715 215.221 164.243 215.767 164.971 216.195C165.631 216.583 166.263 216.798 166.867 216.839C167.478 216.878 168.034 216.755 168.534 216.469C169.039 216.186 169.465 215.75 169.811 215.162L170.352 215.598L166.796 213.507L168.087 211.312L173.858 214.705L172.837 216.443C172.124 217.655 171.255 218.546 170.231 219.116C169.21 219.682 168.112 219.936 166.937 219.88C165.764 219.819 164.599 219.447 163.44 218.766C162.147 218.006 161.179 217.053 160.536 215.907C159.895 214.757 159.611 213.493 159.684 212.116C159.763 210.737 160.231 209.32 161.086 207.866C161.744 206.748 162.492 205.846 163.33 205.161C164.175 204.473 165.071 203.997 166.018 203.733C166.965 203.468 167.923 203.406 168.892 203.547C169.861 203.687 170.801 204.025 171.712 204.561C172.493 205.021 173.153 205.563 173.692 206.188C174.233 206.808 174.643 207.478 174.921 208.198C175.203 208.92 175.343 209.663 175.34 210.429C175.34 211.19 175.186 211.939 174.879 212.677L171.916 210.935ZM188.614 214.754L180.503 228.546L177.587 226.831L185.698 213.039L188.614 214.754ZM208.428 226.406L200.317 240.198L197.799 238.717L196.903 226.508L196.802 226.448L191.697 235.129L188.781 233.414L196.892 219.622L199.451 221.127L200.303 233.302L200.424 233.373L205.525 224.699L208.428 226.406ZM210.983 246.47L207.858 244.632L220.73 233.64L224.487 235.85L221.131 252.438L218.007 250.6L220.809 237.928L220.701 237.865L210.983 246.47ZM213.975 240.934L221.356 245.274L220.018 247.55L212.637 243.21L213.975 240.934ZM228.67 256.871L236.781 243.079L239.697 244.793L233 256.181L238.913 259.658L237.499 262.063L228.67 256.871Z" fill="white"/>
<path d="M111.712 293.477C111.597 293.82 111.535 294.156 111.528 294.487C111.515 294.819 111.556 295.14 111.652 295.451C111.745 295.76 111.898 296.051 112.11 296.325C112.32 296.602 112.584 296.856 112.902 297.085C113.472 297.496 114.084 297.719 114.737 297.753C115.389 297.788 116.044 297.619 116.701 297.247C117.352 296.876 117.964 296.292 118.537 295.497C119.115 294.695 119.479 293.925 119.628 293.187C119.776 292.448 119.731 291.772 119.491 291.157C119.248 290.547 118.829 290.027 118.235 289.598C117.696 289.21 117.154 288.977 116.611 288.9C116.063 288.821 115.546 288.894 115.057 289.12C114.566 289.349 114.135 289.722 113.764 290.237L113.377 289.855L116.26 291.933L115.176 293.437L110.867 290.331L111.787 289.056C112.442 288.147 113.202 287.5 114.068 287.115C114.934 286.73 115.835 286.602 116.771 286.731C117.706 286.863 118.612 287.246 119.49 287.879C120.468 288.584 121.169 289.423 121.592 290.395C122.01 291.368 122.133 292.411 121.962 293.522C121.786 294.634 121.294 295.751 120.486 296.871C119.869 297.728 119.196 298.406 118.468 298.906C117.736 299.403 116.982 299.729 116.204 299.883C115.423 300.04 114.649 300.028 113.881 299.847C113.111 299.67 112.378 299.331 111.683 298.83C111.095 298.407 110.61 297.925 110.226 297.386C109.84 296.851 109.563 296.283 109.396 295.685C109.225 295.084 109.168 294.475 109.223 293.858C109.279 293.242 109.455 292.644 109.752 292.065L111.712 293.477Z" fill="white"/>
<path d="M94.2078 283.579L92.5195 281.914L98.5257 275.825C99.1841 275.158 99.921 274.727 100.736 274.531C101.548 274.333 102.379 274.371 103.228 274.645C104.073 274.923 104.875 275.436 105.634 276.184C106.395 276.935 106.92 277.731 107.209 278.573C107.495 279.418 107.545 280.248 107.357 281.063C107.17 281.878 106.747 282.619 106.089 283.286L100.083 289.375L98.3943 287.709L104.261 281.762C104.644 281.373 104.901 280.944 105.03 280.473C105.156 279.999 105.149 279.521 105.007 279.04C104.862 278.562 104.575 278.112 104.148 277.69C103.72 277.268 103.266 276.988 102.786 276.85C102.3 276.711 101.822 276.71 101.353 276.846C100.884 276.982 100.458 277.244 100.075 277.632L94.2078 283.579Z" fill="white"/>
<path d="M85.7759 274.346L84.0756 271.994L89.4857 263.287L89.3958 263.163L79.4316 265.571L77.7314 263.219L88.34 255.549L89.6732 257.393L82.385 262.663L82.4561 262.761L91.833 260.446L92.8293 261.824L87.6763 270.014L87.7475 270.112L95.0512 264.832L96.3845 266.676L85.7759 274.346Z" fill="white"/>
<path d="M84.3786 248.732L72.7188 254.683L68.848 247.1L70.6187 246.196L73.4113 251.667L76.5767 250.052L73.9846 244.973L75.7553 244.069L78.3474 249.148L81.5299 247.523L78.7141 242.007L80.4847 241.103L84.3786 248.732Z" fill="white"/>
<path d="M61.7618 228.69L74.1461 224.447L74.8298 226.442L68.3932 235.168L68.4285 235.271L76.8641 232.381L77.6326 234.624L65.2483 238.867L64.5605 236.859L71.0052 228.138L70.9679 228.029L62.5262 230.921L61.7618 228.69Z" fill="white"/>
<path d="M71.8366 215.2L72.2798 217.692L58.5842 215.446L58.0716 212.564L70.1522 205.728L70.5954 208.22L60.9621 213.485L60.98 213.586L71.8366 215.2ZM66.7685 216.017L65.5598 209.22L67.4352 208.886L68.6439 215.683L66.7685 216.017Z" fill="white"/>
<path d="M69.3231 194.016L69.4204 198.451L56.3326 198.739L56.2333 194.214C56.2048 192.915 56.4423 191.793 56.9459 190.848C57.4451 189.9 58.177 189.163 59.1415 188.639C60.1061 188.115 61.2679 187.838 62.627 187.808C63.9903 187.778 65.1675 188.006 66.1585 188.491C67.1494 188.973 67.9173 189.683 68.4621 190.621C69.0069 191.555 69.2939 192.687 69.3231 194.016ZM67.317 196.126L67.2742 194.176C67.2542 193.265 67.0714 192.508 66.7257 191.906C66.3758 191.304 65.8651 190.857 65.1938 190.565C64.5182 190.273 63.6798 190.138 62.6786 190.16C61.6774 190.182 60.85 190.353 60.1964 190.675C59.5385 190.996 59.0522 191.461 58.7373 192.069C58.4181 192.672 58.2682 193.417 58.2876 194.303L58.332 196.323L67.317 196.126Z" fill="white"/>
<path d="M64.6191 167.393C66.0173 167.579 67.1801 168 68.1074 168.656C69.031 169.307 69.6971 170.118 70.1056 171.088C70.5146 172.054 70.6436 173.105 70.4926 174.241C70.3416 175.377 69.9423 176.36 69.2947 177.19C68.6435 178.015 67.7867 178.623 66.7244 179.015C65.6584 179.402 64.4284 179.503 63.0344 179.318C61.6362 179.132 60.4753 178.713 59.5516 178.062C58.6243 177.405 57.9562 176.595 57.5471 175.629C57.1387 174.659 57.0099 173.606 57.1609 172.469C57.3119 171.333 57.7109 170.352 58.358 169.527C59.0056 168.697 59.8623 168.089 60.9283 167.702C61.9906 167.31 63.2209 167.207 64.6191 167.393ZM64.305 169.756C63.3208 169.625 62.4702 169.669 61.7534 169.888C61.0329 170.102 60.4635 170.456 60.0452 170.95C59.6228 171.445 59.3647 172.044 59.2709 172.75C59.1772 173.455 59.2697 174.102 59.5485 174.689C59.823 175.276 60.2798 175.768 60.9189 176.167C61.5544 176.561 62.3643 176.823 63.3485 176.954C64.3328 177.085 65.1851 177.044 65.9056 176.83C66.6225 176.611 67.1922 176.255 67.6146 175.761C68.0329 175.266 68.2889 174.666 68.3826 173.961C68.4763 173.255 68.3859 172.609 68.1114 172.022C67.8326 171.435 67.3755 170.944 66.7401 170.55C66.101 170.152 65.2893 169.887 64.305 169.756Z" fill="white"/>
<path d="M59.9679 157.652L60.8208 154.878L71.0299 153.951L71.075 153.805L63.1505 147.302L64.0035 144.528L76.5161 148.376L75.8473 150.551L67.2509 147.907L67.2152 148.023L74.7116 154.114L74.2118 155.739L64.5704 156.559L64.5347 156.675L73.1494 159.324L72.4806 161.499L59.9679 157.652Z" fill="white"/>
<path d="M80.3299 139.942C80.1675 140.295 79.9045 140.539 79.5408 140.677C79.1772 140.814 78.8182 140.799 78.464 140.631C78.1139 140.474 77.8731 140.213 77.7414 139.847C77.6098 139.481 77.6251 139.122 77.7875 138.77C77.9446 138.429 78.2049 138.19 78.5686 138.053C78.934 137.912 79.2918 137.92 79.6418 138.077C79.8761 138.189 80.0623 138.35 80.2005 138.559C80.3404 138.765 80.4238 138.991 80.4507 139.238C80.4755 139.479 80.4352 139.714 80.3299 139.942Z" fill="white"/>
<path d="M79.9305 120.458C79.4224 120.219 78.9204 120.208 78.4245 120.426C77.9308 120.64 77.5015 121.047 77.1366 121.648C76.8801 122.071 76.7238 122.472 76.6677 122.851C76.6117 123.231 76.6443 123.568 76.7655 123.861C76.8868 124.154 77.0865 124.387 77.3648 124.561C77.5979 124.702 77.8322 124.772 78.0675 124.771C78.305 124.765 78.5403 124.706 78.7733 124.593C79.0027 124.478 79.226 124.332 79.4432 124.155C79.6604 123.978 79.866 123.791 80.06 123.595L80.9592 122.705C81.3141 122.342 81.6936 122.017 82.0978 121.729C82.5042 121.437 82.9288 121.214 83.3718 121.059C83.817 120.9 84.2751 120.84 84.7463 120.876C85.2175 120.913 85.6954 121.079 86.1798 121.373C86.8355 121.771 87.3111 122.289 87.6067 122.927C87.8987 123.563 87.9925 124.283 87.8882 125.087C87.7824 125.885 87.4576 126.732 86.9135 127.629C86.385 128.499 85.7914 129.173 85.1326 129.651C84.476 130.124 83.7797 130.385 83.0435 130.431C82.3095 130.474 81.5621 130.285 80.8013 129.863L82.0121 127.868C82.4196 128.076 82.8167 128.152 83.2036 128.098C83.5905 128.044 83.9505 127.886 84.2837 127.625C84.6191 127.36 84.915 127.016 85.1715 126.593C85.4391 126.153 85.608 125.727 85.6781 125.316C85.7467 124.899 85.7202 124.524 85.5984 124.19C85.473 123.855 85.2511 123.588 84.9328 123.39C84.6392 123.217 84.3468 123.156 84.0556 123.209C83.7608 123.259 83.4579 123.397 83.1469 123.622C82.8344 123.841 82.5055 124.12 82.1603 124.459L81.0596 125.533C80.2633 126.311 79.4622 126.821 78.6563 127.065C77.849 127.303 77.0446 127.178 76.2432 126.692C75.5839 126.291 75.1149 125.762 74.8362 125.105C74.5598 124.443 74.4729 123.72 74.5757 122.935C74.6748 122.148 74.962 121.362 75.4375 120.579C75.9196 119.785 76.4804 119.173 77.1199 118.744C77.758 118.309 78.425 118.068 79.121 118.022C79.8134 117.974 80.478 118.136 81.1148 118.507L79.9305 120.458Z" fill="white"/>
<path d="M84.5865 107.644L94.9675 115.62L93.5228 117.5L83.1417 109.525L84.5865 107.644Z" fill="white"/>
<path d="M119.218 84.1439C120.056 85.2786 120.561 86.4074 120.733 87.5304C120.907 88.6473 120.786 89.6896 120.372 90.6573C119.962 91.6224 119.296 92.4454 118.373 93.1263C117.451 93.8071 116.467 94.2029 115.42 94.3135C114.375 94.4181 113.342 94.2245 112.322 93.7328C111.303 93.235 110.376 92.4205 109.54 91.2892C108.703 90.1545 108.197 89.0286 108.024 87.9117C107.852 86.7887 107.971 85.7447 108.381 84.7796C108.795 83.8119 109.463 82.9877 110.385 82.3068C111.307 81.6259 112.29 81.2315 113.333 81.1234C114.38 81.0128 115.413 81.2064 116.432 81.7041C117.452 82.1959 118.381 83.0091 119.218 84.1439ZM117.3 85.56C116.71 84.7613 116.088 84.18 115.433 83.8163C114.778 83.4465 114.128 83.2831 113.482 83.326C112.833 83.3654 112.222 83.5965 111.65 84.0192C111.077 84.4419 110.676 84.9575 110.448 85.566C110.216 86.1711 110.179 86.842 110.337 87.5788C110.495 88.3095 110.869 89.0743 111.459 89.873C112.048 90.6718 112.67 91.2561 113.325 91.6258C113.98 91.9895 114.632 92.1517 115.281 92.1122C115.927 92.0694 116.537 91.8366 117.109 91.4139C117.682 90.9912 118.084 90.4773 118.315 89.8722C118.544 89.2637 118.579 88.594 118.421 87.8633C118.263 87.1265 117.89 86.3588 117.3 85.56Z" fill="white"/>
<path d="M129.022 85.7868L122.86 74.2365L127.192 71.926C128.079 71.4526 128.906 71.2097 129.672 71.1971C130.442 71.1825 131.129 71.3712 131.734 71.7632C132.341 72.1494 132.841 72.711 133.234 73.4479C133.629 74.1886 133.814 74.9158 133.789 75.6294C133.766 76.3373 133.529 77.0022 133.078 77.6242C132.626 78.2424 131.956 78.7881 131.068 79.2615L127.984 80.9071L127.057 79.17L129.86 77.6748C130.379 77.398 130.766 77.1 131.02 76.7806C131.273 76.4575 131.404 76.1147 131.413 75.7522C131.425 75.384 131.321 74.9949 131.102 74.5851C130.884 74.1753 130.616 73.8687 130.3 73.6655C129.982 73.4584 129.618 73.368 129.206 73.3941C128.793 73.4164 128.325 73.567 127.803 73.8458L125.885 74.8687L131.114 84.6706L129.022 85.7868ZM132.197 77.3701L137.848 81.0785L135.513 82.324L129.913 78.5885L132.197 77.3701Z" fill="white"/>
<path d="M141.37 65.4144L146.233 77.5687L144.031 78.4496L139.168 66.2953L141.37 65.4144Z" fill="white"/>
<path d="M159.251 64.1143C159.058 63.8087 158.836 63.5486 158.584 63.334C158.335 63.1142 158.06 62.9434 157.758 62.8217C157.46 62.6989 157.138 62.6334 156.791 62.6251C156.444 62.6128 156.081 62.6576 155.702 62.7595C155.023 62.9423 154.464 63.276 154.025 63.7604C153.586 64.2449 153.304 64.8593 153.178 65.6038C153.055 66.343 153.121 67.1859 153.375 68.1323C153.632 69.0869 154 69.855 154.479 70.4366C154.958 71.0183 155.511 71.4099 156.139 71.6115C156.766 71.809 157.433 71.8125 158.141 71.6219C158.783 71.4491 159.305 71.1761 159.708 70.8029C160.115 70.4286 160.385 69.9808 160.518 69.4594C160.65 68.934 160.634 68.3647 160.468 67.7516L161.009 67.6923L157.577 68.6163L157.095 66.8263L162.224 65.4453L162.633 66.9637C162.924 68.0459 162.946 69.044 162.698 69.9582C162.449 70.8723 161.98 71.6519 161.288 72.297C160.596 72.938 159.727 73.3992 158.682 73.6806C157.518 73.9941 156.425 74.0081 155.403 73.7226C154.385 73.4319 153.499 72.8696 152.745 72.0355C151.994 71.1963 151.439 70.11 151.08 68.7768C150.805 67.7564 150.704 66.8061 150.776 65.9262C150.852 65.0452 151.076 64.2545 151.448 63.5541C151.818 62.8497 152.316 62.2567 152.941 61.7751C153.565 61.2894 154.291 60.9352 155.118 60.7125C155.817 60.5241 156.497 60.4514 157.157 60.4943C157.817 60.533 158.431 60.6765 159.001 60.9247C159.575 61.1717 160.084 61.5114 160.527 61.9438C160.97 62.3761 161.322 62.8902 161.584 63.4861L159.251 64.1143Z" fill="white"/>
<path d="M171.756 57.5159L173.653 70.4686L171.307 70.8122L169.41 57.8595L171.756 57.5159Z" fill="white"/>
<path d="M191.317 56.1823L191.682 69.2681L189.574 69.3269L183.159 60.5854L183.05 60.5884L183.299 69.5019L180.928 69.568L180.564 56.4821L182.685 56.423L189.093 65.1711L189.208 65.1679L188.96 56.248L191.317 56.1823Z" fill="white"/>
<path d="M201.198 69.8146L198.686 69.4961L204.906 57.0892L207.81 57.4576L210.741 71.0253L208.23 70.7067L206.071 59.9432L205.969 59.9303L201.198 69.8146ZM201.926 64.7331L208.774 65.6018L208.535 67.4915L201.686 66.6228L201.926 64.7331Z" fill="white"/>
<path d="M217.92 72.559L221.387 59.9357L223.674 60.5638L220.733 71.2702L226.293 72.7974L225.766 74.7143L217.92 72.559Z" fill="white"/>
<path d="M253.833 77.2133C253.901 76.8587 253.917 76.5169 253.881 76.188C253.85 75.8573 253.766 75.5443 253.629 75.2489C253.496 74.9554 253.306 74.6871 253.059 74.444C252.814 74.197 252.519 73.9812 252.173 73.7963C251.553 73.4647 250.917 73.3253 250.266 73.378C249.614 73.4307 248.988 73.6852 248.386 74.1415C247.79 74.596 247.261 75.2555 246.799 76.1198C246.333 76.9916 246.075 77.8034 246.026 78.5551C245.977 79.3068 246.112 79.9711 246.432 80.5479C246.754 81.1211 247.238 81.5804 247.884 81.9261C248.47 82.2395 249.038 82.3981 249.587 82.4017C250.139 82.4073 250.643 82.2657 251.097 81.9769C251.553 81.6844 251.931 81.2582 252.23 80.6983L252.664 81.0247L249.53 79.3489L250.404 77.7142L255.089 80.219L254.347 81.6056C253.819 82.5939 253.151 83.3363 252.344 83.8327C251.538 84.3292 250.661 84.5759 249.716 84.5729C248.772 84.5661 247.823 84.3075 246.869 83.7971C245.805 83.2284 244.999 82.4904 244.45 81.5832C243.907 80.6742 243.646 79.6575 243.667 78.5333C243.694 77.4074 244.033 76.2356 244.685 75.0181C245.183 74.0861 245.759 73.3241 246.414 72.732C247.073 72.1418 247.778 71.7189 248.528 71.463C249.281 71.2034 250.05 71.1119 250.835 71.1888C251.622 71.2618 252.393 71.5003 253.149 71.9042C253.788 72.2458 254.333 72.6582 254.785 73.1415C255.239 73.621 255.589 74.1463 255.834 74.7173C256.083 75.2904 256.221 75.8861 256.248 76.5046C256.275 77.123 256.18 77.739 255.963 78.3527L253.833 77.2133Z" fill="white"/>
<path d="M272.498 84.6937L274.393 86.1196L269.25 92.9535C268.687 93.7026 268.014 94.2282 267.232 94.5304C266.453 94.8351 265.625 94.9079 264.748 94.7489C263.873 94.5864 263.009 94.1849 262.158 93.5443C261.304 92.9012 260.677 92.1817 260.279 91.3859C259.883 90.5867 259.723 89.7708 259.8 88.9382C259.878 88.1057 260.198 87.3149 260.762 86.5658L265.904 79.7319L267.799 81.1578L262.776 87.8333C262.448 88.2692 262.251 88.7291 262.186 89.2131C262.123 89.6996 262.195 90.1719 262.399 90.6299C262.607 91.0845 262.95 91.4924 263.43 91.8537C263.91 92.215 264.398 92.4322 264.892 92.5055C265.392 92.5779 265.866 92.5156 266.312 92.3185C266.759 92.1215 267.147 91.8051 267.475 91.3693L272.498 84.6937Z" fill="white"/>
<path d="M282.085 92.7238L284.084 94.8283L279.88 104.178L279.986 104.289L289.541 100.576L291.539 102.681L282.046 111.694L280.479 110.044L287.001 103.852L286.917 103.764L277.932 107.306L276.761 106.073L280.778 97.2701L280.695 97.182L274.159 103.388L272.592 101.737L282.085 92.7238Z" fill="white"/>
<path d="M286.879 117.924L297.643 110.473L302.489 117.474L300.854 118.606L297.358 113.555L294.436 115.577L297.681 120.266L296.046 121.397L292.801 116.709L289.863 118.742L293.388 123.835L291.754 124.967L286.879 117.924Z" fill="white"/>
<path d="M311.42 144.552C311.7 144.325 311.932 144.073 312.115 143.797C312.304 143.524 312.44 143.23 312.525 142.916C312.612 142.605 312.638 142.278 312.605 141.933C312.576 141.586 312.488 141.231 312.342 140.867C312.08 140.215 311.682 139.7 311.149 139.322C310.615 138.944 309.972 138.737 309.217 138.7C308.469 138.666 307.64 138.832 306.73 139.197C305.813 139.566 305.094 140.023 304.574 140.568C304.054 141.113 303.731 141.709 303.605 142.356C303.484 143.002 303.56 143.665 303.834 144.345C304.082 144.962 304.415 145.448 304.833 145.803C305.254 146.162 305.73 146.377 306.264 146.447C306.801 146.516 307.365 146.432 307.954 146.195L308.077 146.724L306.751 143.427L308.47 142.735L310.453 147.663L308.994 148.25C307.954 148.668 306.966 148.808 306.028 148.671C305.091 148.533 304.261 148.16 303.538 147.55C302.819 146.939 302.258 146.132 301.854 145.128C301.404 144.009 301.26 142.925 301.422 141.877C301.589 140.832 302.042 139.885 302.78 139.037C303.524 138.191 304.536 137.51 305.817 136.995C306.797 136.601 307.729 136.387 308.611 136.353C309.495 136.324 310.307 136.452 311.046 136.738C311.79 137.022 312.438 137.446 312.991 138.009C313.547 138.57 313.985 139.249 314.305 140.043C314.575 140.715 314.729 141.382 314.765 142.042C314.805 142.701 314.736 143.329 314.557 143.924C314.38 144.524 314.103 145.069 313.727 145.56C313.35 146.052 312.882 146.463 312.322 146.794L311.42 144.552Z" fill="white"/>
<path d="M306.254 157.243L318.968 154.124L320.996 162.393L319.065 162.867L317.602 156.901L314.15 157.747L315.509 163.285L313.578 163.759L312.22 158.221L308.749 159.072L310.225 165.088L308.294 165.561L306.254 157.243Z" fill="white"/>
<path d="M323.67 181.936L310.643 183.226L310.435 181.127L318.701 174.11L318.69 174.002L309.817 174.88L309.583 172.52L322.61 171.231L322.819 173.342L314.546 180.353L314.558 180.468L323.438 179.589L323.67 181.936Z" fill="white"/>
<path d="M310.803 191.107L323.882 191.673L323.514 200.179L321.528 200.093L321.793 193.956L318.242 193.803L317.996 199.499L316.01 199.413L316.256 193.717L312.686 193.562L312.419 199.75L310.433 199.664L310.803 191.107Z" fill="white"/>
<path d="M309.676 206.719L322.562 209.024L321.698 213.856C321.521 214.846 321.2 215.646 320.736 216.256C320.271 216.869 319.698 217.293 319.015 217.526C318.337 217.764 317.586 217.809 316.764 217.662C315.937 217.514 315.252 217.21 314.706 216.748C314.165 216.292 313.789 215.695 313.579 214.956C313.373 214.218 313.359 213.354 313.536 212.364L314.152 208.922L316.09 209.269L315.531 212.396C315.427 212.975 315.422 213.463 315.515 213.861C315.613 214.259 315.801 214.574 316.08 214.806C316.362 215.042 316.732 215.202 317.189 215.283C317.647 215.365 318.053 215.345 318.408 215.222C318.768 215.1 319.064 214.87 319.298 214.531C319.536 214.192 319.707 213.732 319.811 213.149L320.194 211.009L309.258 209.053L309.676 206.719ZM314.324 214.42L307.914 216.566L308.38 213.961L314.78 211.872L314.324 214.42Z" fill="white"/>
<path d="M305.77 224.593L306.574 222.192L317.525 230.717L316.596 233.494L302.717 233.715L303.521 231.315L314.499 231.302L314.531 231.205L305.77 224.593ZM310.612 226.3L308.421 232.847L306.614 232.242L308.805 225.696L310.612 226.3Z" fill="white"/>
<path d="M299.81 240.456L311.512 246.325L310.449 248.444L300.524 243.467L297.939 248.621L296.162 247.73L299.81 240.456Z" fill="white"/>
<path d="M297.06 270.548L286.305 263.084L287.508 261.351L298.35 261.368L298.412 261.278L291.087 256.194L292.439 254.246L303.194 261.71L301.984 263.454L291.139 263.428L291.074 263.522L298.405 268.61L297.06 270.548Z" fill="white"/>
<path d="M289.46 279.64L279.655 270.966L281.226 269.19L291.031 277.864L289.46 279.64Z" fill="white"/>
<path d="M267.561 282.752L268.462 283.922L269.014 295.645L274.364 291.528L275.576 293.103L267.897 299.013L266.996 297.843L266.439 286.125L261.095 290.238L259.882 288.663L267.561 282.752Z" fill="white"/>
<path d="M252.455 293.497L254.664 292.262L257.032 305.937L254.477 307.366L244.059 298.194L246.268 296.958L254.4 304.333L254.489 304.283L252.455 293.497ZM254.888 298.018L248.863 301.388L247.933 299.725L253.958 296.355L254.888 298.018Z" fill="white"/>
<path d="M234.122 312.642C234.376 313.142 234.766 313.459 235.291 313.592C235.812 313.726 236.401 313.668 237.058 313.418C237.52 313.242 237.889 313.021 238.167 312.756C238.444 312.491 238.625 312.205 238.709 311.899C238.793 311.594 238.779 311.287 238.666 310.979C238.569 310.724 238.427 310.525 238.24 310.382C238.049 310.24 237.828 310.142 237.574 310.088C237.323 310.038 237.057 310.016 236.776 310.023C236.496 310.029 236.219 310.051 235.946 310.086L234.69 310.237C234.187 310.305 233.687 310.329 233.191 310.308C232.692 310.289 232.219 310.204 231.775 310.055C231.326 309.906 230.927 309.673 230.578 309.355C230.228 309.036 229.953 308.612 229.751 308.083C229.478 307.366 229.42 306.665 229.579 305.98C229.739 305.299 230.107 304.673 230.683 304.102C231.257 303.537 232.033 303.068 233.013 302.695C233.964 302.332 234.847 302.164 235.66 302.192C236.469 302.221 237.179 302.443 237.788 302.859C238.394 303.275 238.867 303.884 239.209 304.684L237.029 305.515C236.834 305.101 236.568 304.796 236.229 304.602C235.891 304.407 235.51 304.311 235.086 304.312C234.659 304.316 234.214 304.405 233.752 304.581C233.27 304.765 232.876 304.997 232.568 305.279C232.258 305.566 232.048 305.878 231.94 306.216C231.833 306.557 231.844 306.904 231.974 307.256C232.099 307.573 232.293 307.8 232.555 307.938C232.818 308.079 233.142 308.156 233.526 308.17C233.907 308.189 234.338 308.17 234.818 308.115L236.347 307.943C237.453 307.818 238.398 307.907 239.184 308.209C239.967 308.517 240.526 309.109 240.86 309.986C241.134 310.706 241.18 311.412 240.996 312.102C240.808 312.794 240.432 313.418 239.869 313.975C239.308 314.535 238.599 314.979 237.743 315.305C236.875 315.636 236.056 315.774 235.288 315.72C234.517 315.672 233.843 315.452 233.265 315.061C232.689 314.674 232.264 314.139 231.989 313.454L234.122 312.642Z" fill="white"/>
<path d="M224.719 317.387L225.165 319.324L214.987 321.667L214.541 319.729L218.484 318.822L215.994 308.002L218.286 307.474L220.776 318.294L224.719 317.387Z" fill="white"/>
<path d="M198.197 323.693L195.833 323.883L195.147 315.358C195.072 314.423 195.227 313.584 195.612 312.839C195.992 312.094 196.563 311.49 197.325 311.027C198.088 310.568 199 310.296 200.062 310.211C201.128 310.125 202.074 310.247 202.901 310.579C203.727 310.914 204.387 311.419 204.882 312.093C205.377 312.767 205.661 313.571 205.737 314.506L206.423 323.031L204.059 323.221L203.389 314.894C203.345 314.35 203.187 313.875 202.915 313.47C202.639 313.064 202.272 312.758 201.815 312.551C201.359 312.349 200.831 312.271 200.232 312.32C199.633 312.368 199.124 312.528 198.706 312.801C198.284 313.079 197.971 313.44 197.767 313.884C197.563 314.328 197.483 314.821 197.527 315.365L198.197 323.693Z" fill="white"/>
<path d="M186.776 310.877L185.917 323.94L181.019 323.618C180.015 323.552 179.186 323.31 178.53 322.891C177.87 322.471 177.387 321.923 177.082 321.245C176.771 320.571 176.644 319.82 176.698 318.991C176.753 318.153 176.979 317.42 177.374 316.793C177.77 316.166 178.325 315.688 179.038 315.359C179.751 315.034 180.612 314.905 181.619 314.971L184.866 315.185L184.738 317.13L181.81 316.937C181.224 316.899 180.736 316.969 180.349 317.149C179.961 317.328 179.666 317.591 179.464 317.936C179.258 318.281 179.14 318.686 179.109 319.149C179.079 319.613 179.143 320.027 179.303 320.392C179.458 320.757 179.719 321.049 180.084 321.27C180.445 321.494 180.921 321.626 181.512 321.665L183.681 321.807L184.41 310.722L186.776 310.877Z" fill="white"/>
<path d="M156.955 319.874L159.705 307.075L161.767 307.518L165.925 317.531L166.031 317.554L167.904 308.836L170.223 309.334L167.473 322.133L165.398 321.687L161.248 311.669L161.135 311.645L159.261 320.369L156.955 319.874Z" fill="white"/>
<path d="M145.639 316.358L149.871 303.97L152.115 304.737L147.883 317.125L145.639 316.358Z" fill="white"/>
<path d="M142.988 301.422L137.38 313.251L135.238 312.235L137.814 306.8L137.67 306.731L130.478 309.979L127.862 308.738L134.953 305.599L133.429 296.89L136.005 298.111L137.13 304.855L139.175 303.929L140.845 300.406L142.988 301.422Z" fill="white"/>
</svg>
