<svg width="16" height="16" viewBox="0 0 16 16" fill="none" xmlns="http://www.w3.org/2000/svg">
<path d="M2.46902 4.52518L8.00045 7.29089M8.00045 7.29089L13.5319 4.52518M8.00045 7.29089L8.00045 14.0109M5.1433 3.00518L10.8576 5.86232M8.50902 1.83375L13.0804 4.11946C13.2709 4.21408 13.4311 4.35993 13.5431 4.54063C13.6552 4.72133 13.7146 4.9297 13.7147 5.14232V10.588C13.7146 10.8007 13.6552 11.009 13.5431 11.1897C13.4311 11.3704 13.2709 11.5163 13.0804 11.6109L8.50902 13.8966C8.35024 13.9761 8.17514 14.0174 7.99759 14.0174C7.82004 14.0174 7.64494 13.9761 7.48616 13.8966L2.91473 11.6109C2.72452 11.5151 2.56488 11.368 2.45381 11.1862C2.34275 11.0045 2.28468 10.7953 2.28616 10.5823V5.14232C2.28627 4.9297 2.3457 4.72133 2.45775 4.54063C2.5698 4.35993 2.73004 4.21408 2.92045 4.11946L7.49187 1.83375C7.64991 1.75522 7.82398 1.71436 8.00045 1.71436C8.17691 1.71436 8.35099 1.75522 8.50902 1.83375Z" stroke="white" stroke-linecap="round" stroke-linejoin="round"/>
</svg>
