<svg width="17" height="17" viewBox="0 0 17 17" fill="none" xmlns="http://www.w3.org/2000/svg">
<path d="M8.93811 1.25C5.07249 1.25 1.93811 4.38438 1.93811 8.25C1.93811 12.1156 5.07249 15.25 8.93811 15.25C12.8037 15.25 15.9381 12.1156 15.9381 8.25C15.9381 4.38438 12.8037 1.25 8.93811 1.25ZM8.93811 14.0625C5.72874 14.0625 3.12561 11.4594 3.12561 8.25C3.12561 5.04063 5.72874 2.4375 8.93811 2.4375C12.1475 2.4375 14.7506 5.04063 14.7506 8.25C14.7506 11.4594 12.1475 14.0625 8.93811 14.0625Z" fill="#94A3B8"/>
<path d="M10.6819 5.19844C10.2131 4.7875 9.59436 4.5625 8.93811 4.5625C8.28186 4.5625 7.66311 4.78906 7.19436 5.19844C6.70686 5.625 6.43811 6.19844 6.43811 6.8125V6.93125C6.43811 7 6.49436 7.05625 6.56311 7.05625H7.31311C7.38186 7.05625 7.43811 7 7.43811 6.93125V6.8125C7.43811 6.12344 8.11155 5.5625 8.93811 5.5625C9.76467 5.5625 10.4381 6.12344 10.4381 6.8125C10.4381 7.29844 10.0944 7.74375 9.56155 7.94844C9.2303 8.075 8.94905 8.29687 8.74749 8.5875C8.5428 8.88437 8.43655 9.24062 8.43655 9.60156V9.9375C8.43655 10.0063 8.4928 10.0625 8.56155 10.0625H9.31155C9.3803 10.0625 9.43655 10.0063 9.43655 9.9375V9.58281C9.43736 9.43113 9.48385 9.28321 9.56998 9.15834C9.6561 9.03347 9.77786 8.93746 9.91936 8.88281C10.8412 8.52812 11.4365 7.71562 11.4365 6.8125C11.4381 6.19844 11.1694 5.625 10.6819 5.19844ZM8.31311 11.6875C8.31311 11.8533 8.37896 12.0122 8.49617 12.1294C8.61338 12.2467 8.77235 12.3125 8.93811 12.3125C9.10387 12.3125 9.26284 12.2467 9.38005 12.1294C9.49726 12.0122 9.56311 11.8533 9.56311 11.6875C9.56311 11.5217 9.49726 11.3628 9.38005 11.2456C9.26284 11.1283 9.10387 11.0625 8.93811 11.0625C8.77235 11.0625 8.61338 11.1283 8.49617 11.2456C8.37896 11.3628 8.31311 11.5217 8.31311 11.6875Z" fill="#94A3B8"/>
</svg>
