<svg width="23" height="24" viewBox="0 0 23 24" fill="none" xmlns="http://www.w3.org/2000/svg">
<path fill-rule="evenodd" clip-rule="evenodd" d="M9.87336 13.6263C8.97516 12.7281 8.97516 11.2718 9.87336 10.3736C10.7716 9.4754 12.2278 9.4754 13.1261 10.3736C14.0243 11.2718 14.0243 12.7281 13.1261 13.6263C12.2278 14.5245 10.7716 14.5245 9.87336 13.6263Z" stroke="black" stroke-width="1.3" stroke-linecap="round" stroke-linejoin="round"/>
<path d="M21.5672 9.58743C21.7521 10.3615 21.8499 11.1693 21.8499 11.9999C21.8499 17.7161 17.2161 22.3499 11.4999 22.3499C5.78376 22.3499 1.1499 17.7161 1.1499 11.9999C1.1499 6.28376 5.78376 1.6499 11.4999 1.6499C12.5228 1.6499 13.511 1.79828 14.4442 2.07468" stroke="black" stroke-width="1.3" stroke-linecap="round" stroke-linejoin="round"/>
<path d="M13.7998 9.69995L19.5498 3.94995" stroke="#FFD601" stroke-width="1.3" stroke-linecap="round" stroke-linejoin="round"/>
</svg>
