<svg width="26" height="24" viewBox="0 0 26 24" fill="none" xmlns="http://www.w3.org/2000/svg">
<circle cx="15.6748" cy="13.5004" r="9" fill="#FFD601" stroke="white"/>
<path d="M11.0248 7.25741V6.20032C9.69312 6.83587 8.61583 7.91315 7.98029 9.24482H9.03738C10.1331 9.24482 11.0248 8.35304 11.0248 7.25741Z" fill="black"/>
<path d="M9.0365 14.7554H7.9794C8.61495 16.087 9.69224 17.1643 11.0239 17.7999V16.7428C11.0239 15.6472 10.1322 14.7554 9.0365 14.7554Z" fill="black"/>
<path d="M18.522 9.24495H19.5791C18.9435 7.91328 17.8662 6.83599 16.5345 6.20044V7.25754C16.5345 8.35316 17.4263 9.24495 18.522 9.24495Z" fill="black"/>
<path d="M20.1346 11.0819H18.5219C16.4132 11.0819 14.6976 9.36627 14.6976 7.25763V5.64493C14.6866 5.64308 14.6756 5.64127 14.6646 5.63942C14.0667 5.55216 13.4918 5.55216 12.8939 5.63942C12.8829 5.64127 12.8718 5.64308 12.8608 5.64493V7.25763C12.8608 9.36627 11.1452 11.0819 9.03659 11.0819H7.42389C7.42204 11.0929 7.42023 11.1039 7.41838 11.1149C7.3752 11.4143 7.3504 11.71 7.3504 12.0003C7.3504 12.2905 7.3752 12.5862 7.41838 12.8856C7.42023 12.8966 7.42204 12.9076 7.42389 12.9186H9.03659C11.1452 12.9186 12.8608 14.6342 12.8608 16.7429V18.3556C12.8718 18.3574 12.8829 18.3592 12.8939 18.3611C13.4918 18.4483 14.0667 18.4483 14.6646 18.3611C14.6756 18.3592 14.6866 18.3574 14.6976 18.3556V16.7429C14.6976 14.6342 16.4132 12.9186 18.5219 12.9186H20.1346C20.1364 12.9076 20.1382 12.8966 20.1401 12.8856C20.1833 12.5862 20.2081 12.2905 20.2081 12.0003C20.2081 11.71 20.1833 11.4143 20.1401 11.1149C20.1382 11.1039 20.1364 11.0929 20.1346 11.0819ZM13.7792 12.9186C13.2722 12.9186 12.8608 12.5072 12.8608 12.0003C12.8608 11.4933 13.2722 11.0819 13.7792 11.0819C14.2862 11.0819 14.6976 11.4933 14.6976 12.0003C14.6976 12.5072 14.2862 12.9186 13.7792 12.9186Z" fill="#0F172A"/>
<path d="M16.5344 16.7429V17.8C17.8661 17.1644 18.9434 16.0872 19.5789 14.7555H18.5218C17.4262 14.7555 16.5344 15.6473 16.5344 16.7429Z" fill="black"/>
<path d="M22.2614 13.1356L22.2611 13.138C22.2165 13.467 22.1531 13.7892 22.0728 14.1053L22.0709 14.1157C22.0697 14.1218 22.068 14.1299 22.0657 14.1393L22.0652 14.1413L21.8879 14.8301L21.8299 15.0554H21.7714C20.9019 17.3218 19.1006 19.1231 16.8342 19.9926V20.0511L16.6089 20.1091L15.9201 20.2863L15.9181 20.2868C15.9087 20.2892 15.9005 20.2909 15.8944 20.2921L15.8841 20.2939C15.5693 20.3739 15.2481 20.4372 14.9198 20.4809C14.9136 20.4819 14.9062 20.4831 14.898 20.4845C14.8726 20.4887 14.8393 20.4942 14.811 20.498L14.8071 20.4985L14.8071 20.4985C14.4738 20.5379 14.1316 20.5658 13.779 20.5658C13.4272 20.5658 13.085 20.5379 12.7518 20.4985L12.7478 20.4981C12.7195 20.4943 12.6862 20.4888 12.6608 20.4845C12.6526 20.4832 12.6452 20.482 12.6391 20.481C12.3106 20.4374 11.99 20.3742 11.6765 20.2944L11.6764 20.2944L11.6613 20.2916C11.6551 20.2903 11.6468 20.2885 11.6374 20.286L10.9491 20.1091L10.7237 20.0512V19.9926C8.45814 19.1231 6.6561 17.3219 5.78652 15.0554H5.72925L5.67108 14.8305L5.4929 14.1417L5.49228 14.1394L5.49229 14.1394C5.489 14.1262 5.48691 14.1148 5.48557 14.1065C5.48511 14.1037 5.48471 14.101 5.48436 14.0986C5.40501 13.7852 5.34112 13.4649 5.29768 13.1371L5.29753 13.136C5.29619 13.1256 5.2945 13.1153 5.29181 13.0988L5.29085 13.0929C5.28806 13.0758 5.2842 13.052 5.28139 13.0262C5.2411 12.6931 5.21333 12.3513 5.21333 12.0002C5.21333 11.6491 5.2411 11.3075 5.28137 10.9744C5.28418 10.9485 5.28805 10.9245 5.29085 10.9074L5.29189 10.9011C5.29455 10.8848 5.29621 10.8747 5.29753 10.8645L5.29768 10.8633C5.34112 10.5355 5.40501 10.2152 5.48436 9.90184C5.48471 9.89943 5.48512 9.89669 5.48558 9.89388C5.48693 9.88556 5.48901 9.87422 5.49229 9.86108L5.49289 9.85871L5.4929 9.85871L5.67108 9.1699L5.72925 8.94504H5.78652C6.6561 6.67853 8.45814 4.87732 10.7237 4.0078V3.94917L10.9491 3.89127L11.6374 3.71439C11.6468 3.71189 11.6551 3.71008 11.6614 3.7088L11.6764 3.70599L22.2614 13.1356ZM22.2614 13.1356C22.263 13.1226 22.2651 13.109 22.2679 13.091L22.2684 13.0883C22.2709 13.0721 22.2741 13.0518 22.2768 13.031L22.2772 13.0282C22.3177 12.6937 22.3446 12.3515 22.3446 12.0002C22.3446 11.6489 22.3177 11.3067 22.2771 10.9721L22.2771 10.9721L22.2767 10.969C22.274 10.9485 22.2709 10.9285 22.2683 10.9124L22.2679 10.9093C22.2651 10.8914 22.2629 10.8776 22.2612 10.8644L22.261 10.8624C22.2164 10.5334 22.153 10.2111 22.0727 9.89505L22.0708 9.88475C22.0696 9.87863 22.0679 9.87045 22.0656 9.86101L22.0651 9.85904L21.8878 9.17024L21.8299 8.94499H21.7713C20.9018 6.67855 19.1006 4.8773 16.8341 4.00777V3.94925L16.6089 3.89129L15.9201 3.71405L15.9201 3.71405L15.9181 3.71355C15.9087 3.7112 15.9005 3.7095 15.8944 3.70832L15.884 3.70639C15.5711 3.62737 15.2516 3.56399 14.9248 3.52029C14.9181 3.51925 14.9101 3.51795 14.9011 3.51651C14.8751 3.51229 14.8416 3.50686 14.8127 3.50315L14.8128 3.50314L14.8104 3.50287C14.4758 3.46246 14.1326 3.43458 13.779 3.43458C13.4263 3.43458 13.083 3.46246 12.7483 3.50286L12.746 3.50315C12.7172 3.50686 12.6837 3.51229 12.6576 3.51651C12.6487 3.51795 12.6407 3.51925 12.634 3.52029C12.3078 3.56395 11.9889 3.62713 11.6766 3.70594L22.2614 13.1356ZM5.77783 9.96505C5.69978 10.2718 5.63731 10.584 5.59508 10.9027L5.77783 9.96505ZM5.77783 9.96505C5.77923 9.95988 5.77992 9.95472 5.78063 9.94944M5.77783 9.96505L5.78063 9.94944M5.78063 9.94944C5.7813 9.94439 5.78199 9.93923 5.78334 9.93384L5.78063 9.94944ZM3.05812 12.0002C3.05812 6.08882 7.86848 1.27937 13.779 1.27937C19.6903 1.27937 24.4998 6.0888 24.4998 12.0002C24.4998 17.9116 19.6903 22.721 13.779 22.721C7.86848 22.721 3.05812 17.9116 3.05812 12.0002Z" fill="black" stroke="white" stroke-width="0.6"/>
<rect x="2.92477" y="18.5002" width="9" height="1" rx="0.5" fill="black"/>
<rect x="0.924774" y="21.5002" width="9" height="1" rx="0.5" fill="black"/>
</svg>
