<svg width="80" height="72" viewBox="0 0 80 72" fill="none" xmlns="http://www.w3.org/2000/svg">
<g clip-path="url(#clip0_0_3417)">
<path d="M73.816 0.383545H6.18395C2.77417 0.383545 0 3.15771 0 6.5675V46.6458C0 50.0556 2.77417 52.8298 6.18395 52.8298H33.7378C34.3862 52.8298 34.9119 52.304 34.9119 51.6556C34.9119 51.0071 34.3862 50.4814 33.7378 50.4814H6.18395C4.06904 50.4814 2.34834 48.7607 2.34834 46.6458V6.5675C2.34834 4.45259 4.06904 2.73188 6.18395 2.73188H73.816C75.931 2.73188 77.6517 4.45259 77.6517 6.5675V46.6458C77.6517 47.2943 78.1774 47.82 78.8258 47.82C79.4743 47.82 80 47.2943 80 46.6458V6.5675C80 3.15771 77.2258 0.383545 73.816 0.383545Z" fill="black"/>
<path d="M9.94129 44.0627H33.7378C34.3862 44.0627 34.9119 43.537 34.9119 42.8885C34.9119 42.2401 34.3862 41.7144 33.7378 41.7144H9.94129C9.29283 41.7144 8.76712 42.2401 8.76712 42.8885C8.76712 43.537 9.29283 44.0627 9.94129 44.0627Z" fill="black"/>
<path d="M23.6399 20.3444V15.3346C23.6399 13.3059 21.9895 11.6555 19.9609 11.6555H12.4462C10.4175 11.6555 8.76712 13.3059 8.76712 15.3346V20.3444C8.76712 22.373 10.4175 24.0234 12.4462 24.0234H19.9609C21.9895 24.0234 23.6399 22.373 23.6399 20.3444ZM11.1155 20.3444V19.0136H12.4462C13.0946 19.0136 13.6204 18.4879 13.6204 17.8395C13.6204 17.191 13.0946 16.6653 12.4462 16.6653H11.1155V15.3346C11.1155 14.6008 11.7124 14.0039 12.4462 14.0039H15.0294V21.6751H12.4462C11.7124 21.6751 11.1155 21.0781 11.1155 20.3444ZM19.9609 21.6751H17.3777V14.0039H19.9609C20.6946 14.0039 21.2916 14.6008 21.2916 15.3346V16.6653H19.9609C19.3124 16.6653 18.7867 17.191 18.7867 17.8395C18.7867 18.4879 19.3124 19.0136 19.9609 19.0136H21.2916V20.3444C21.2916 21.0781 20.6946 21.6751 19.9609 21.6751Z" fill="black"/>
<path d="M8.76712 35.3738C8.76712 36.0222 9.29283 36.5479 9.94129 36.5479C10.5897 36.5479 11.1155 36.0222 11.1155 35.3738V32.8689C11.1155 32.2204 10.5897 31.6947 9.94129 31.6947C9.29283 31.6947 8.76712 32.2204 8.76712 32.8689V35.3738Z" fill="black"/>
<path d="M12.5245 32.8689V35.3738C12.5245 36.0222 13.0502 36.5479 13.6986 36.5479C14.3471 36.5479 14.8728 36.0222 14.8728 35.3738V32.8689C14.8728 32.2204 14.3471 31.6947 13.6986 31.6947C13.0502 31.6947 12.5245 32.2204 12.5245 32.8689Z" fill="black"/>
<path d="M16.2818 32.8689V35.3738C16.2818 36.0222 16.8075 36.5479 17.456 36.5479C18.1044 36.5479 18.6301 36.0222 18.6301 35.3738V32.8689C18.6301 32.2204 18.1044 31.6947 17.456 31.6947C16.8075 31.6947 16.2818 32.2204 16.2818 32.8689Z" fill="black"/>
<path d="M20.0391 32.8689V35.3738C20.0391 36.0222 20.5648 36.5479 21.2133 36.5479C21.8617 36.5479 22.3875 36.0222 22.3875 35.3738V32.8689C22.3875 32.2204 21.8617 31.6947 21.2133 31.6947C20.5648 31.6947 20.0391 32.2204 20.0391 32.8689Z" fill="black"/>
<path d="M27.3973 35.3738V32.8689C27.3973 32.2204 26.8716 31.6947 26.2231 31.6947C25.5747 31.6947 25.049 32.2204 25.049 32.8689V35.3738C25.049 36.0222 25.5747 36.5479 26.2231 36.5479C26.8716 36.5479 27.3973 36.0222 27.3973 35.3738Z" fill="black"/>
<path d="M31.1546 35.3738V32.8689C31.1546 32.2204 30.6289 31.6947 29.9804 31.6947C29.332 31.6947 28.8063 32.2204 28.8063 32.8689V35.3738C28.8063 36.0222 29.332 36.5479 29.9804 36.5479C30.6289 36.5479 31.1546 36.0222 31.1546 35.3738Z" fill="black"/>
<path d="M33.7378 31.6947C33.0893 31.6947 32.5636 32.2204 32.5636 32.8689V35.3738C32.5636 36.0222 33.0893 36.5479 33.7378 36.5479C34.3862 36.5479 34.9119 36.0222 34.9119 35.3738V32.8689C34.9119 32.2204 34.3862 31.6947 33.7378 31.6947Z" fill="black"/>
<path d="M38.6693 35.3738V32.8689C38.6693 32.2204 38.1435 31.6947 37.4951 31.6947C36.8466 31.6947 36.3209 32.2204 36.3209 32.8689V35.3738C36.3209 36.0222 36.8466 36.5479 37.4951 36.5479C38.1435 36.5479 38.6693 36.0222 38.6693 35.3738Z" fill="black"/>
<path d="M65.0489 24.0234C68.4587 24.0234 71.2329 21.2493 71.2329 17.8395C71.2329 14.4297 68.4587 11.6555 65.0489 11.6555H57.5343C54.1245 11.6555 51.3503 14.4297 51.3503 17.8395C51.3503 21.2493 54.1245 24.0234 57.5343 24.0234H65.0489ZM53.6986 17.8395C53.6986 15.7246 55.4193 14.0039 57.5343 14.0039H65.0489C67.1638 14.0039 68.8845 15.7246 68.8845 17.8395C68.8845 19.9544 67.1638 21.6751 65.0489 21.6751H57.5343C55.4193 21.6751 53.6986 19.9544 53.6986 17.8395Z" fill="black"/>
<path d="M74.1731 39.0447C73.9062 38.8601 73.5748 38.7943 73.2576 38.8624C72.1905 39.0926 71.1142 39.2093 70.0585 39.2093C64.8451 39.2093 60.0662 36.5612 57.2754 32.1257C57.0605 31.7841 56.6852 31.5768 56.2816 31.5768C55.878 31.5768 55.5027 31.7841 55.2878 32.1257C52.4972 36.5612 47.7183 39.2093 42.5049 39.2093C41.4494 39.2093 40.373 39.0926 39.3058 38.8624C38.9889 38.7942 38.6572 38.8599 38.3903 39.0447C38.1233 39.2292 37.9447 39.5162 37.897 39.8371C37.6822 41.2775 37.5734 42.7254 37.5734 44.1409C37.5734 56.4485 45.2837 67.9777 55.907 71.555C56.0285 71.5959 56.1551 71.6164 56.2818 71.6164C56.4084 71.6164 56.5349 71.5959 56.6566 71.555C67.2798 67.9777 74.9902 56.4485 74.9902 44.1409C74.9902 42.7254 74.8814 41.2775 74.6666 39.8371C74.6187 39.516 74.44 39.2292 74.1731 39.0447ZM44.6578 59.7236C41.6037 55.1129 39.9217 49.5788 39.9217 44.1409C39.9217 43.2327 39.9707 42.3093 40.0676 41.383C40.8826 41.4991 41.6985 41.5577 42.5049 41.5577C47.3395 41.5577 51.8486 39.5876 55.1076 36.1631V68.7336C51.0434 66.9772 47.3763 63.8274 44.6578 59.7236ZM67.9057 59.7236C65.1873 63.8274 61.5203 66.9772 57.4559 68.7337V36.1631C60.715 39.5876 65.2241 41.5577 70.0587 41.5577C70.8651 41.5577 71.6809 41.499 72.4959 41.383C72.5928 42.3093 72.6418 43.2327 72.6418 44.1409C72.6418 49.5788 70.9598 55.1129 67.9057 59.7236Z" fill="#FFD601"/>
</g>
<defs>
<clipPath id="clip0_0_3417">
<rect width="80" height="72" fill="white"/>
</clipPath>
</defs>
</svg>
