<svg width="22" height="22" viewBox="0 0 22 22" fill="none" xmlns="http://www.w3.org/2000/svg">
<path d="M5.80957 2.25L3.18457 5.75V18C3.18457 18.4641 3.36894 18.9092 3.69713 19.2374C4.02532 19.5656 4.47044 19.75 4.93457 19.75H17.1846C17.6487 19.75 18.0938 19.5656 18.422 19.2374C18.7502 18.9092 18.9346 18.4641 18.9346 18V5.75L16.3096 2.25H5.80957Z" stroke="white" stroke-width="1.2" stroke-linecap="round" stroke-linejoin="round"/>
<path d="M3.18457 5.75H18.9346" stroke="white" stroke-width="1.2" stroke-linecap="round" stroke-linejoin="round"/>
<path d="M14.5596 9.25C14.5596 10.1783 14.1908 11.0685 13.5344 11.7249C12.8781 12.3813 11.9878 12.75 11.0596 12.75C10.1313 12.75 9.24107 12.3813 8.5847 11.7249C7.92832 11.0685 7.55957 10.1783 7.55957 9.25" stroke="white" stroke-width="1.2" stroke-linecap="round" stroke-linejoin="round"/>
</svg>
