<svg width="33" height="32" viewBox="0 0 33 32" fill="none" xmlns="http://www.w3.org/2000/svg">
<path d="M15.3414 6.66687V25.3335L10.0081 20.0002H6.00811C5.65449 20.0002 5.31535 19.8597 5.0653 19.6097C4.81525 19.3596 4.67477 19.0205 4.67477 18.6669V13.3335C4.67477 12.9799 4.81525 12.6408 5.0653 12.3907C5.31535 12.1407 5.65449 12.0002 6.00811 12.0002H10.0081L15.3414 6.66687Z" fill="#FFD601"/>
<path d="M25.1548 7.52026C27.402 9.77027 28.6642 12.8203 28.6642 16.0003C28.6642 19.1803 27.402 22.2303 25.1548 24.4803" fill="#0EF032"/>
<path d="M25.1548 7.52026C27.402 9.77027 28.6642 12.8203 28.6642 16.0003C28.6642 19.1803 27.402 22.2303 25.1548 24.4803" stroke="black" stroke-width="1.5" stroke-linecap="round" stroke-linejoin="round"/>
<path d="M21.3948 11.2803C22.0156 11.8995 22.5082 12.6352 22.8443 13.4452C23.1804 14.2551 23.3534 15.1234 23.3534 16.0003C23.3534 16.8772 23.1804 17.7455 22.8443 18.5554C22.5082 19.3653 22.0156 20.101 21.3948 20.7203" fill="#FFD601"/>
<path d="M21.3948 11.2803C22.0156 11.8995 22.5082 12.6352 22.8443 13.4452C23.1804 14.2551 23.3534 15.1234 23.3534 16.0003C23.3534 16.8772 23.1804 17.7455 22.8443 18.5554C22.5082 19.3653 22.0156 20.101 21.3948 20.7203" stroke="black" stroke-width="1.5" stroke-linecap="round" stroke-linejoin="round"/>
<path d="M15.3414 6.66687V25.3335L10.0081 20.0002H6.00811C5.65449 20.0002 5.31535 19.8597 5.0653 19.6097C4.81525 19.3596 4.67477 19.0205 4.67477 18.6669V13.3335C4.67477 12.9799 4.81525 12.6408 5.0653 12.3907C5.31535 12.1407 5.65449 12.0002 6.00811 12.0002H10.0081L15.3414 6.66687Z" fill="#FFD601" stroke="black" stroke-width="1.5" stroke-linecap="round" stroke-linejoin="round"/>
</svg>
