<svg width="21" height="21" viewBox="0 0 21 21" fill="none" xmlns="http://www.w3.org/2000/svg">
<path d="M10.9381 1.91675C15.5406 1.91675 19.2715 5.64758 19.2715 10.2501C19.2715 14.8526 15.5406 18.5834 10.9381 18.5834C6.33563 18.5834 2.6048 14.8526 2.6048 10.2501C2.6048 5.64758 6.33563 1.91675 10.9381 1.91675ZM7.6048 11.0834L4.32313 11.0842C4.50879 12.5528 5.17766 13.9178 6.22439 14.9644C7.27113 16.011 8.63626 16.6796 10.1048 16.8651V13.5834C9.44175 13.5834 8.80587 13.32 8.33703 12.8512C7.86819 12.3823 7.6048 11.7465 7.6048 11.0834ZM17.5531 11.0842L14.2715 11.0834C14.2715 11.7465 14.0081 12.3823 13.5392 12.8512C13.0704 13.32 12.4345 13.5834 11.7715 13.5834L11.7723 16.8651C13.2407 16.6795 14.6056 16.0107 15.6522 14.9641C16.6988 13.9176 17.3675 12.5526 17.5531 11.0842ZM12.6048 10.2501H9.27146V11.0834C9.27146 11.3044 9.35926 11.5164 9.51554 11.6727C9.67182 11.8289 9.88378 11.9167 10.1048 11.9167H11.7715C11.9925 11.9167 12.2044 11.8289 12.3607 11.6727C12.517 11.5164 12.6048 11.3044 12.6048 11.0834V10.2501ZM10.9381 3.58341C9.31429 3.58344 7.74627 4.17607 6.52834 5.25008C5.31041 6.3241 4.52629 7.80566 4.32313 9.41675H7.6048C7.6048 9.19573 7.69259 8.98377 7.84887 8.82749C8.00515 8.67121 8.21712 8.58341 8.43813 8.58341H13.4381C13.6591 8.58341 13.8711 8.67121 14.0274 8.82749C14.1837 8.98377 14.2715 9.19573 14.2715 9.41675H17.5531C17.35 7.80566 16.5659 6.3241 15.3479 5.25008C14.13 4.17607 12.562 3.58344 10.9381 3.58341Z" fill="#0F172A"/>
</svg>
