<svg width="24" height="22" viewBox="0 0 24 22" fill="none" xmlns="http://www.w3.org/2000/svg">
<g clip-path="url(#clip0_32_6984)">
<path d="M12.1543 14.9059C14.3114 14.9059 16.0601 13.1573 16.0601 11.0002C16.0601 8.84304 14.3114 7.09436 12.1543 7.09436C9.99716 7.09436 8.24847 8.84304 8.24847 11.0002C8.24847 13.1573 9.99716 14.9059 12.1543 14.9059Z" fill="#FFD601" stroke="#161618" stroke-width="1.8"/>
<path d="M11.653 0.956787V3.18867H12.153H12.653V0.956787H12.153H11.653Z" fill="#FFD601" stroke="black" stroke-linecap="round"/>
<path d="M11.653 18.8119V21.0438H12.153H12.653V18.8119H12.153H11.653Z" fill="#FFD601" stroke="black" stroke-linecap="round"/>
<path d="M18.0303 5.82981L19.6084 4.25162L19.2549 3.89807L18.9013 3.54452L17.3232 5.12271L17.6767 5.47626L18.0303 5.82981Z" fill="#FFD601" stroke="black" stroke-linecap="round"/>
<path d="M5.40482 18.4561L6.983 16.878L6.62945 16.5244L6.27589 16.1709L4.69772 17.749L5.05127 18.1026L5.40482 18.4561Z" fill="#FFD601" stroke="black" stroke-linecap="round"/>
<path d="M22.1965 10.5002H19.9646V11.0002V11.5002H22.1965V11.0002V10.5002Z" fill="#FFD601" stroke="black" stroke-linecap="round"/>
<path d="M4.34144 10.5002H2.10956V11.0002V11.5002H4.34144V11.0002V10.5002Z" fill="#FFD601" stroke="black" stroke-linecap="round"/>
<path d="M17.3232 16.8777L18.9013 18.456L19.2549 18.1024L19.6085 17.7489L18.0303 16.1706L17.6767 16.5242L17.3232 16.8777Z" fill="#FFD601" stroke="black" stroke-linecap="round"/>
<path d="M4.69772 4.2515L6.27589 5.82968L6.62945 5.47613L6.983 5.12257L5.40482 3.5444L5.05127 3.89795L4.69772 4.2515Z" fill="#FFD601" stroke="black" stroke-linecap="round"/>
</g>
<defs>
<clipPath id="clip0_32_6984">
<rect width="22.9565" height="22" fill="white" transform="translate(0.674774 0.000244141)"/>
</clipPath>
</defs>
</svg>
