<svg width="16" height="16" viewBox="0 0 16 16" fill="none" xmlns="http://www.w3.org/2000/svg">
<path d="M10.2853 13.1429V12C10.2853 11.3938 10.0445 10.8124 9.61583 10.3838C9.18717 9.95514 8.60579 9.71432 7.99958 9.71432H3.99958C3.39337 9.71432 2.81199 9.95514 2.38334 10.3838C1.95468 10.8124 1.71387 11.3938 1.71387 12V13.1429M10.8567 7.42861L11.9996 8.57146L14.2853 6.28575M8.2853 5.14289C8.2853 6.40526 7.26195 7.42861 5.99958 7.42861C4.73722 7.42861 3.71387 6.40526 3.71387 5.14289C3.71387 3.88053 4.73722 2.85718 5.99958 2.85718C7.26195 2.85718 8.2853 3.88053 8.2853 5.14289Z" stroke="white" stroke-linecap="round" stroke-linejoin="round"/>
</svg>
